<?xml version="1.0" encoding="utf-8"?>
<!-- Generator: Adobe Illustrator 15.0.0, SVG Export Plug-In . SVG Version: 6.00 Build 0)  -->
<!DOCTYPE svg PUBLIC "-//W3C//DTD SVG 1.1//EN" "http://www.w3.org/Graphics/SVG/1.1/DTD/svg11.dtd">
<svg version="1.1" xmlns="http://www.w3.org/2000/svg" xmlns:xlink="http://www.w3.org/1999/xlink" x="0px" y="0px" width="200px"
	 height="200px" viewBox="0 0 200 200" enable-background="new 0 0 200 200" xml:space="preserve">
<g id="Layer_5">
	<rect fill-rule="evenodd" clip-rule="evenodd" fill="#E7E7E7" width="200" height="200"/>
</g>
<g id="Shape_53_3_" enable-background="new    ">
	<g id="Shape_53_6_">
		<g>
			<path fill-rule="evenodd" clip-rule="evenodd" fill="#9C9C9C" d="M99.146,34.054c-16.091,0-29.135,16.388-29.135,36.603
				c0,20.217,16.726,34.696,29.135,34.696c12.494,0,29.135-14.479,29.135-34.696C128.281,50.442,115.236,34.054,99.146,34.054z"/>
		</g>
	</g>
</g>
<g id="Shape_54_3_" enable-background="new    ">
	<g id="Shape_54">
		<g>
			<path fill-rule="evenodd" clip-rule="evenodd" fill="#9C9C9C" d="M128.434,116.484c-6.045-4.356-20.932,3.447-29.195,3.49
				c-8.144,0.04-25.909-7.743-31.943-3.72c-12.73,8.486-22.32,16.42-22.175,37.643c0.078,11.504,26.518,11.014,53.999,10.895
				c26.583-0.116,54.234,0.508,54.311-10.665C153.573,132.904,140.929,125.491,128.434,116.484z"/>
		</g>
	</g>
</g>
<g id="Shape_53_2_" enable-background="new    ">
	<g id="Shape_53_1_">
		<g>
			<path fill-rule="evenodd" clip-rule="evenodd" fill="#CECECE" d="M99.893,35.55c-16.089,0-29.134,16.388-29.134,36.603
				c0,20.215,16.727,34.696,29.134,34.696c12.498,0,29.135-14.481,29.135-34.696C129.027,51.938,115.985,35.55,99.893,35.55z"/>
		</g>
	</g>
</g>
<g id="Shape_54_2_" enable-background="new    ">
	<g id="Shape_54_1_">
		<g>
			<path fill-rule="evenodd" clip-rule="evenodd" fill="#CECECE" d="M129.184,117.98c-6.049-4.356-20.932,3.447-29.199,3.49
				c-8.142,0.04-25.907-7.743-31.941-3.72c-12.73,8.483-22.32,16.42-22.175,37.643c0.078,11.501,26.518,11.014,53.999,10.895
				c26.582-0.119,54.235,0.508,54.309-10.665C154.322,134.4,141.676,126.987,129.184,117.98z"/>
		</g>
	</g>
</g>
</svg>
