<?xml version="1.0" encoding="utf-8"?>
<!-- Generator: Adobe Illustrator 14.0.0, SVG Export Plug-In . SVG Version: 6.00 Build 43363)  -->
<!DOCTYPE svg PUBLIC "-//W3C//DTD SVG 1.1//EN" "http://www.w3.org/Graphics/SVG/1.1/DTD/svg11.dtd">
<svg version="1.1" id="_x31_" xmlns="http://www.w3.org/2000/svg" xmlns:xlink="http://www.w3.org/1999/xlink" x="0px" y="0px"
	 width="523.999px" height="1000px" viewBox="238 0 523.999 1000" enable-background="new 238 0 523.999 1000" xml:space="preserve"
	>
<path d="M238,500v-19.256c0-10.715,3.231-19.849,9.628-27.301c6.397-7.485,14.81-10.699,25.158-10.699h294.938L441.679,316.169
	c-7.645-7.692-11.771-16.601-11.771-27.301c0-10.7,4.27-19.256,11.771-26.758l22.472-22.487
	c7.484-7.501,16.425-11.244,26.772-11.244c10.349,0,19.608,3.583,27.285,11.244l51.052,51.052l182.04,182.04
	c7.133,7.117,10.699,16.234,10.699,27.285c0,11.052-3.566,20.168-10.699,27.285l-182.04,182.04l-51.052,51.052
	c-7.677,7.66-16.937,11.243-27.285,11.243c-10.348,0-19.289-3.742-26.772-11.243l-22.472-22.487
	c-7.501-7.501-11.771-16.058-11.771-26.758c0-10.699,4.126-19.607,11.771-27.301l126.046-126.573H272.786
	c-10.348,0-18.761-3.215-25.158-10.7c-6.397-7.453-9.628-16.586-9.628-27.301V500z"/>
</svg>
