<?xml version="1.0" encoding="utf-8"?>
<!-- Generator: Adobe Illustrator 14.0.0, SVG Export Plug-In . SVG Version: 6.00 Build 43363)  -->
<!DOCTYPE svg PUBLIC "-//W3C//DTD SVG 1.1//EN" "http://www.w3.org/Graphics/SVG/1.1/DTD/svg11.dtd">
<svg version="1.1" id="_x31_" xmlns="http://www.w3.org/2000/svg" xmlns:xlink="http://www.w3.org/1999/xlink" x="0px" y="0px"
	 width="543.241px" height="1000px" viewBox="228.379 0 543.241 1000" enable-background="new 228.379 0 543.241 1000"
	 xml:space="preserve">
<path d="M500,762h-19.256c-10.715,0-19.848-3.229-27.301-9.628c-7.485-6.397-10.7-14.811-10.7-25.158V432.275L316.169,558.32
	c-7.693,7.646-16.602,11.771-27.301,11.771s-19.256-4.271-26.758-11.771l-22.487-22.472c-7.501-7.483-11.244-16.425-11.244-26.772
	c0-10.349,3.583-19.608,11.244-27.285l51.052-51.052l182.04-182.04c7.117-7.133,16.234-10.7,27.285-10.7
	c11.052,0,20.168,3.567,27.285,10.7l182.04,182.04l51.052,51.052c7.66,7.677,11.243,16.937,11.243,27.285
	s-3.742,19.289-11.243,26.772L737.89,558.32c-7.501,7.502-16.058,11.771-26.758,11.771c-10.699,0-19.606-4.127-27.301-11.771
	L557.257,432.275v294.938c0,10.349-3.214,18.761-10.699,25.158c-7.452,6.396-16.585,9.628-27.301,9.628L500,762L500,762z"/>
</svg>
