<?xml version="1.0" encoding="utf-8"?>
<!-- Generator: Adobe Illustrator 14.0.0, SVG Export Plug-In . SVG Version: 6.00 Build 43363)  -->
<!DOCTYPE svg PUBLIC "-//W3C//DTD SVG 1.1//EN" "http://www.w3.org/Graphics/SVG/1.1/DTD/svg11.dtd">
<svg version="1.1" id="_x31_" xmlns="http://www.w3.org/2000/svg" xmlns:xlink="http://www.w3.org/1999/xlink" x="0px" y="0px"
	 width="937.515px" height="1000px" viewBox="31.242 0 937.515 1000" enable-background="new 31.242 0 937.515 1000"
	 xml:space="preserve">
<g>
	<path d="M342.877,539.448c-3.151-12.631-4.851-25.835-4.851-39.448c0-86.209,67.379-156.695,152.343-161.677l-23.32,31.8
		l0.005-0.001l-99.687,135.93L342.877,539.448L342.877,539.448z M171.216,873.155c-2.043,2.786-2.514,6.123-1.322,9.365
		c1.192,3.241,3.713,5.479,7.074,6.276l72.786,17.292c3.996,0.949,7.946-0.504,10.375-3.814l568.663-775.431
		c2.043-2.786,2.514-6.123,1.321-9.365s-3.713-5.479-7.073-6.278L750.253,93.91c-3.995-0.949-7.946,0.504-10.375,3.815
		L171.216,873.155L171.216,873.155z M657.116,460.566c3.166,12.616,4.851,25.835,4.851,39.434
		c0,86.209-67.363,156.681-152.328,161.678L657.116,460.566L657.116,460.566z M859.195,499.979l-8.115,8.654
		c-50.436,53.787-105.858,104.231-167.854,144.434c-55.354,35.894-117.604,51.522-183.228,51.511
		c-9.25-0.002-18.5-0.308-27.729-0.957l-5.504-0.387l-60.658,82.718l16.253,2.53c25.678,3.995,51.654,5.818,77.636,5.818
		c85.708,0,166.59-19.653,238.561-66.925c45.213-29.695,87.517-63.646,126.988-100.604c32.866-30.771,65.421-62.658,94.192-97.339
		c13.066-15.75,11.682-47.504-2.502-62.224c-29.366-30.474-58.471-61.169-89.104-90.39c-29.172-27.828-59.854-54.114-92.259-78.115
		l-8.075-5.98l-54.24,73.985l7.873,5.94c46.775,35.297,89.445,76.147,129.626,118.708L859.195,499.979L859.195,499.979z
		 M140.783,499.973l8.139-8.63c50.607-53.654,105.835-105.144,167.807-145.537c55.278-36.032,117.664-51.542,183.268-51.542
		c9.525,0,19.049,0.335,28.55,1.015l5.512,0.394l59.841-81.627l-16.252-2.528c-25.685-3.995-51.663-5.819-77.65-5.819
		c-85.747,0-166.557,19.671-238.561,66.954c-46.401,30.47-89.428,65.876-129.563,104.17c-30.63,29.226-59.736,59.921-89.113,90.386
		c-14.18,14.706-15.56,46.485-2.506,62.226c28.765,34.687,61.329,66.565,94.193,97.34c28.4,26.593,58.272,51.624,89.651,74.635
		l8.063,5.913l54.764-74.668l-7.961-5.931c-46.997-35.005-89.987-75.404-130.055-118.093L140.783,499.973L140.783,499.973z
		 M366.25,507.576L366.03,500C366.03,502.55,366.118,505.07,366.25,507.576L366.25,507.576z M367.367,506.052l-1.117,1.524
		L367.367,506.052z"/>
</g>
</svg>
