<?xml version="1.0" encoding="utf-8"?>
<!-- Generator: Adobe Illustrator 14.0.0, SVG Export Plug-In . SVG Version: 6.00 Build 43363)  -->
<!DOCTYPE svg PUBLIC "-//W3C//DTD SVG 1.1//EN" "http://www.w3.org/Graphics/SVG/1.1/DTD/svg11.dtd">
<svg version="1.1" id="_x31_" xmlns="http://www.w3.org/2000/svg" xmlns:xlink="http://www.w3.org/1999/xlink" x="0px" y="0px"
	 width="500.542px" height="1000px" viewBox="249.729 0 500.542 1000" enable-background="new 249.729 0 500.542 1000"
	 xml:space="preserve">
<path d="M435.761,500L310.386,626.015l-47.071,47.311c-8.844,8.896-13.585,19.327-13.585,31.859
	c0,12.533,4.542,23.162,13.585,31.859c9.031,8.698,19.66,13.054,31.847,13.054c12.188,0,23.002-4.183,31.859-13.054L500,563.707
	l172.979,173.337c8.857,8.871,19.673,13.054,31.859,13.054c12.188,0,22.816-4.354,31.847-13.054
	c9.044-8.697,13.587-19.326,13.587-31.859c0-12.532-4.742-22.963-13.587-31.859l-47.069-47.311L564.239,500l125.375-126.015
	l47.069-47.31c8.845-8.897,13.586-19.327,13.586-31.86c0-12.534-4.541-23.163-13.586-31.86
	c-9.029-8.698-19.658-13.053-31.847-13.053c-12.188,0-23.002,4.182-31.86,13.053L500,436.294L327.021,262.956
	c-8.857-8.871-19.673-13.053-31.86-13.053c-12.187,0-22.816,4.355-31.847,13.053c-9.043,8.697-13.585,19.326-13.585,31.86
	c0,12.533,4.742,22.962,13.585,31.86l47.071,47.31L435.761,500z"/>
</svg>
