<?xml version="1.0" encoding="utf-8"?>
<!-- Generator: Adobe Illustrator 14.0.0, SVG Export Plug-In . SVG Version: 6.00 Build 43363)  -->
<!DOCTYPE svg PUBLIC "-//W3C//DTD SVG 1.1//EN" "http://www.w3.org/Graphics/SVG/1.1/DTD/svg11.dtd">
<svg version="1.1" id="_x31_" xmlns="http://www.w3.org/2000/svg" xmlns:xlink="http://www.w3.org/1999/xlink" x="0px" y="0px"
	 width="668.729px" height="1000px" viewBox="165.636 0 668.729 1000" enable-background="new 165.636 0 668.729 1000"
	 xml:space="preserve">
<path d="M219.5,898.253c13.47,0,26.854-6.506,36.492-15.671c10.692-10.167,17.267-23.831,17.267-38.706V619.278
	c0-2.654,1.097-4.938,3.168-6.598c33.04-26.458,71.038-38.562,113.285-36.099c42.742,2.491,79.269,19.494,109.514,49.74
	c47.439,47.439,76.904,73.163,146.783,73.163c69.031,0,127.805-24.386,176.628-73.165c7.771-7.766,11.729-17.32,11.729-28.299
	V203.245c0-17.815-9.139-29.447-25.152-36.638c-16.865-7.572-31.301-4.74-44.342,8.316c-32.729,32.765-72.513,49.74-118.861,49.74
	c-47.781,0-57.935-18.664-88.982-49.74c-48.808-48.85-107.611-73.177-176.657-73.177c-68.53,0-153.897,27.209-203.042,76.31
	c-7.881,7.874-11.692,17.179-11.692,28.315v640.631c0,14.45,6.626,27.266,17.351,36.724
	C192.808,892.389,206.296,898.253,219.5,898.253L219.5,898.253z M726.618,331.834v230.853c0,2.904-1.333,5.401-3.746,7.02
	c-23.446,15.717-48.717,22.032-76.862,22.032c-36.15,0-47.371-18.389-70.589-41.61c-48.893-48.904-110.308-77.08-179.431-81.109
	c-37.764-2.2-75.731,3.067-111.203,16.303c-2.676,0.999-5.427,0.652-7.773-0.977c-2.346-1.629-3.631-4.086-3.631-6.941V243.812
	c0-3.132,1.569-5.82,4.297-7.36c28.593-16.137,70.005-26.957,102.689-26.957c40.419,0,71.856,12.978,100.432,41.577
	c54.167,54.214,84.718,81.34,165.208,81.34c23.629,0,47.156-2.836,70.04-8.759c2.616-0.677,5.153-0.155,7.29,1.499
	C725.479,326.806,726.618,329.132,726.618,331.834z"/>
</svg>
