<?xml version="1.0" encoding="utf-8"?>
<!-- Generator: Adobe Illustrator 14.0.0, SVG Export Plug-In . SVG Version: 6.00 Build 43363)  -->
<!DOCTYPE svg PUBLIC "-//W3C//DTD SVG 1.1//EN" "http://www.w3.org/Graphics/SVG/1.1/DTD/svg11.dtd">
<svg version="1.1" id="_x31_" xmlns="http://www.w3.org/2000/svg" xmlns:xlink="http://www.w3.org/1999/xlink" x="0px" y="0px"
	 width="765.548px" height="1000px" viewBox="117.233 0 765.548 1000" enable-background="new 117.233 0 765.548 1000"
	 xml:space="preserve">
<g>
	<g>
		<path d="M214.722,630.32c-18.859-23.548-53.358-27.396-76.934-8.556c-23.589,18.854-27.447,53.378-8.597,76.971
			c6.763,8.466,14.219,16.293,22.022,23.808c20.352,19.601,43.306,37.002,67.256,51.946C302.852,827.14,400.615,850,499.535,850
			c99.698,0,197.675-23.745,282.152-77.639c24.158-15.413,47.257-33.326,67.705-53.436c7.652-7.523,15.593-15.846,22.125-24.402
			c18.393-24.094,13.776-58.612-10.315-77.011c-24.09-18.395-58.613-13.774-76.989,10.293c-4.993,6.604-11.352,13.107-17.316,18.794
			c-15.35,14.633-32.771,27.469-50.923,38.388C650.945,724.103,574.826,739.8,499.535,739.8
			c-74.995,0-151.251-15.121-216.443-53.408c-18.12-10.642-35.547-23.181-50.93-37.53
			C226.108,643.213,219.827,636.879,214.722,630.32z"/>
	</g>
	<g>
		<path d="M694.226,391.273c65.756,0,119.387-53.63,119.387-119.386c0-65.756-53.632-119.385-119.387-119.385
			c-65.756,0-119.386,53.63-119.386,119.385C574.84,337.642,628.47,391.273,694.226,391.273z"/>
	</g>
	<g>
		<path d="M303.398,393.775c67.133,0,121.887-54.754,121.887-121.887c0-67.133-54.754-121.887-121.887-121.887
			c-67.133,0-121.887,54.754-121.887,121.887C181.511,339.021,236.266,393.775,303.398,393.775z"/>
	</g>
</g>
</svg>
