<?xml version="1.0" encoding="utf-8"?>
<!-- Generator: Adobe Illustrator 14.0.0, SVG Export Plug-In . SVG Version: 6.00 Build 43363)  -->
<!DOCTYPE svg PUBLIC "-//W3C//DTD SVG 1.1//EN" "http://www.w3.org/Graphics/SVG/1.1/DTD/svg11.dtd">
<svg version="1.1" id="_x31_" xmlns="http://www.w3.org/2000/svg" xmlns:xlink="http://www.w3.org/1999/xlink" x="0px" y="0px"
	 width="1000px" height="1000px" viewBox="0 0 1000 1000" enable-background="new 0 0 1000 1000" xml:space="preserve">
<path fill-rule="evenodd" clip-rule="evenodd" d="M0.083,799.861V199.08c0-25.661,9.051-47.747,27.201-65.897
	c18.15-18.15,40.237-27.201,65.897-27.201h813.673c25.66,0,47.747,9.05,65.897,27.201c18.149,18.15,27.2,40.237,27.2,65.897v600.851
	c0,25.66-9.051,47.746-27.2,65.896c-18.12,18.12-40.154,27.497-65.763,28.189l-0.067,0.002H93.182
	c-25.851,0-47.731-10.025-65.897-28.191C9.144,847.687-0.612,825.598,0.083,799.861L0.083,799.861z M919.672,206.364l-1.786-12.507
	l-2.45-4.083c-0.19-0.317-0.53-0.869-0.877-1.348c-2.955,0.336-6.193-0.898-8.859-2.164H93.182c-3.388,0-5.898,1.574-8.037,4.14
	c-2.185,2.622-4.116,5.728-4.78,9.122c0.135,63.846,29.424,113.933,79.254,153.011c74.015,58.042,148.006,116.104,221.396,174.938
	c2.466,1.342,5.18,3.551,7.302,5.248c4.438,3.551,8.762,7.289,13.038,11.03c7.995,6.996,16.137,14.081,24.524,20.604
	c7.665,5.962,16.096,11.391,24.327,16.534c8.854,5.534,17.959,10.936,27.302,15.606c6.633,3.316,13.679,5.058,21.105,4.438
	l0.207-0.018h2.188c7.481,0,15.018-1.945,21.962-4.615c9.431-3.627,18.434-9.248,26.555-15.203
	c8.114-5.951,16.498-11.904,25.131-17.084c8.386-5.031,16.895-13.146,23.784-20.035c4.324-4.325,14.293-14.398,20.958-16.808
	c73.267-58.731,147.077-116.768,221.023-174.639c21.764-17.032,39.57-39.868,54.292-63.082
	c12.764-20.128,24.959-45.22,24.959-69.583V206.364L919.672,206.364z M919.672,799.604V388.939
	c-9.582,9.879-19.754,19.173-30.459,27.838l-0.054,0.043l-0.054,0.042c-44.43,33.993-88.729,68.176-132.651,102.821
	c-34.583,27.28-68.997,54.852-102.766,83.137c-8.44,7.07-16.857,14.171-25.321,21.213c-6.712,5.585-13.461,11.154-20.354,16.516
	c-14.47,11.254-31.829,20.102-48.596,27.367c-18.447,7.993-38.202,13.28-58.41,13.28h-1.98c-20.031,0-40-5.56-58.356-13.257
	c-16.707-7.007-34.729-15.889-48.764-27.482l-45.568-37.644c-33.615-28.268-67.869-55.828-102.333-83.052
	c-43.995-34.752-88.427-68.966-133.063-102.89l-0.062-0.046l-0.06-0.048c-10.705-8.665-20.876-17.959-30.459-27.838v410.992
	c0,3.725,1.272,6.637,4.141,9.027c2.433,2.027,5.417,3.79,8.677,3.79h813.673c3.316,0,5.999-1.141,8.343-3.484
	C917.855,806.605,919.169,803.271,919.672,799.604z"/>
</svg>
