<?xml version="1.0" encoding="UTF-8" standalone="no"?>
<svg
   xmlns:dc="http://purl.org/dc/elements/1.1/"
   xmlns:cc="http://creativecommons.org/ns#"
   xmlns:rdf="http://www.w3.org/1999/02/22-rdf-syntax-ns#"
   xmlns:svg="http://www.w3.org/2000/svg"
   xmlns="http://www.w3.org/2000/svg"
   xmlns:sodipodi="http://sodipodi.sourceforge.net/DTD/sodipodi-0.dtd"
   xmlns:inkscape="http://www.inkscape.org/namespaces/inkscape"
   width="765.956"
   height="1000"
   id="svg2"
   version="1.1"
   inkscape:version="0.48.4 r9939"
   sodipodi:docname="icon-comment-2.svg">
  <metadata
     id="metadata13">
    <rdf:RDF>
      <cc:Work
         rdf:about="">
        <dc:format>image/svg+xml</dc:format>
        <dc:type
           rdf:resource="http://purl.org/dc/dcmitype/StillImage" />
      </cc:Work>
    </rdf:RDF>
  </metadata>
  <defs
     id="defs11" />
  <sodipodi:namedview
     pagecolor="#ffffff"
     bordercolor="#666666"
     borderopacity="1"
     objecttolerance="10"
     gridtolerance="10"
     guidetolerance="10"
     inkscape:pageopacity="0"
     inkscape:pageshadow="2"
     inkscape:window-width="1693"
     inkscape:window-height="1076"
     id="namedview9"
     showgrid="false"
     inkscape:zoom="0.6675088"
     inkscape:cx="382.978"
     inkscape:cy="500"
     inkscape:window-x="132"
     inkscape:window-y="60"
     inkscape:window-maximized="0"
     inkscape:current-layer="svg2" />
  <g
     id="g4"
     transform="matrix(-1,0,0,1,765.95514,0)">
    <title
       id="title6">Layer 1</title>
    <path
       id="svg_1"
       d="m 765.95557,540.90698 0,122.41101 c 0,22.85101 -9.06799,44.62299 -25.22198,60.77399 -16.15302,16.15198 -37.92505,25.22302 -60.77399,25.22302 l -331.02002,0 -155.185,155.18097 c -20.01099,20.01099 -52.47702,20.01001 -72.48799,0 -9.632,-9.63 -15.01201,-22.625 -15.01201,-36.24597 l -0.004,-118.935 -20.259,0 c -22.84799,0 -44.62599,-9.07001 -60.77501,-25.22406 -16.14999,-16.14996 -25.217,-37.92596 -25.217,-60.77295 l 0,-402.92499 c 0,-22.847 9.069,-44.623 25.217,-60.77501 16.14801,-16.153 37.929,-25.218 60.776,-25.218 l 180.47398,0 114.43799,0 102.52502,0 196.52997,0 c 22.85101,0 44.62201,9.065 60.77405,25.21701 16.151,16.151 25.22095,37.927 25.22095,60.77499 l 0,177.99002 0,102.52496 0.001,0 z m -446.616,120.94702 359.13699,0 0,-400 -591,0 0,400 101.548,0 0,130.31104 130.315,-130.31104 z"
       inkscape:connector-curvature="0"
       style="fill:#000000" />
  </g>
</svg>
