<svg width="902" height="1000" xmlns="http://www.w3.org/2000/svg" xmlns:svg="http://www.w3.org/2000/svg">
  <path d="m676.11189,250.4c61.5,0 114.4,24.4 158.7,73.1c44.2,48.7 66.7,107.7 67.3,176.9c0.6,69.2 -24,127.9 -74,176c-50,48.1 -108.7,72.8 -176,74c-14.1,0 -26,-4.8 -35.6,-14.4c-9.6,-9.6 -14.7,-21.5 -15.4,-35.6c-0.7,-14.1 4.5,-25.6 15.4,-34.6c10.9,-9 22.8,-14.1 35.6,-15.4c41.7,0 76.9,-14.7 105.8,-44.2c28.9,-29.5 43.6,-64.8 44.2,-105.8c0.6,-41 -11.9,-76.6 -37.5,-106.7c-25.6,-30.1 -55.1,-44.9 -88.5,-44.2l-103.8,0l63.5,65.4c9.6,9.6 14.4,21.5 14.4,35.6c0,14.1 -4.8,26 -14.4,35.6c-9.6,9.6 -21.2,14.4 -34.6,14.4c-13.5,0 -25,-4.8 -34.6,-14.4l-186.7,-186.6l186.5,-185.6c9.6,-9.6 21.2,-14.4 34.6,-14.4c13.5,0 25,4.8 34.6,14.4c9.6,9.6 14.4,21.5 14.4,35.6c0,14.1 -4.8,26 -14.4,35.6l-63.5,65.4l104,0l0,-0.1zm-410.6,264.5c-9.6,10.2 -14.4,22.1 -14.4,35.6c0,13.5 4.8,25 14.4,34.6l64.4,65.4l-103.8,0c-34.6,-0.6 -64.1,-15.4 -88.5,-44.2c-24.4,-28.9 -36.9,-64.1 -37.5,-105.8c-0.6,-41.7 13.8,-77.3 43.3,-106.7c29.5,-29.5 65.1,-44.2 106.7,-44.2c13.5,0.6 25.3,-4.2 35.6,-14.4c10.3,-10.3 15.4,-22.1 15.4,-35.6c0,-13.5 -5.1,-25 -15.4,-34.6c-10.2,-9.6 -22.1,-14.4 -35.6,-14.4c-69.9,-1.3 -128.9,23.1 -177,73.1c-48.1,50 -72.4,109 -73.1,176.9c-0.6,68 21.5,126.6 66.3,176c44.9,49.4 98.1,74 159.6,74l103.9,0l-64.4,64.4c-9,9.6 -13.8,21.5 -14.4,35.6c-0.6,14.1 4.2,26 14.4,35.6c10.3,9.6 22.1,14.4 35.6,14.4s25,-4.8 34.6,-14.4l186.6,-185.6l-186.5,-185.7c-9,-9.6 -20.5,-14.4 -34.6,-14.4s-26,4.8 -35.6,14.4z" />
</svg>
