<svg width="860" height="1000" xmlns="http://www.w3.org/2000/svg" xmlns:svg="http://www.w3.org/2000/svg">
  <path d="m573.7,722.8c0,35.1 28.9,64.3 63.7,64.3c34.8,0 63.7,-29.2 63.7,-64.3c0,-34.7 -28.9,-63.4 -63.7,-63.4c-34.8,0 -63.7,28.7 -63.7,63.4l0,0zm191.2,-254.7l0,-15c0,-1.9 -3,-9.4 -4.5,-10.9l-97,-97.2c-1.5,-1.5 -8.9,-4.5 -11,-4.5l-78.6,0l0,127.6l191.1,0l0,0zm-637.7,254.7c0,35.1 28.9,64.3 63.9,64.3c35,0 63.9,-29.2 63.9,-64.3c0,-34.7 -28.9,-63.4 -63.9,-63.4c-35,0 -63.9,28.7 -63.9,63.4l0,0zm-127.2,-541.3c0,-17.6 14.4,-32 31.9,-32l510.1,0c17.3,0 31.7,14.4 31.7,32l0,95.6l79.8,0c18,0 42,10 54.5,22.3l98,98.4c27.2,27.4 22.3,66.7 22.3,102.1l0,159.4c17.4,0 31.9,14.4 31.9,31.7c0,36.6 -38.8,31.7 -63.6,31.7l-31.7,0c0,70.9 -57.2,127.7 -127.4,127.7s-127.1,-56.9 -127.1,-127.7l-192,0c0,70.9 -56.9,127.7 -127.3,127.7c-70.4,0 -127.3,-56.9 -127.3,-127.7c-24.9,0 -63.7,4.9 -63.7,-31.7l0,-509.5l-0.1,0z" fill="black" />
</svg>
