<?xml version="1.0" encoding="utf-8"?>
<!-- Generator: Adobe Illustrator 14.0.0, SVG Export Plug-In . SVG Version: 6.00 Build 43363)  -->
<!DOCTYPE svg PUBLIC "-//W3C//DTD SVG 1.1//EN" "http://www.w3.org/Graphics/SVG/1.1/DTD/svg11.dtd">
<svg version="1.1" id="_x31_" xmlns="http://www.w3.org/2000/svg" xmlns:xlink="http://www.w3.org/1999/xlink" x="0px" y="0px"
	 width="607.771px" height="1000px" viewBox="196.115 0 607.771 1000" enable-background="new 196.115 0 607.771 1000"
	 xml:space="preserve">
<path d="M311.989,450.918V142.281h376.022v308.637H723.4c22.115,0,41.292,8.134,57.56,24.401
	c15.596,15.597,23.25,34.947,22.915,58.039c-0.319,23.091-7.958,42.106-22.915,57.063L529.274,846.006
	c-7.813,7.814-17.563,11.713-29.275,11.713c-11.697,0-21.461-3.897-29.259-11.713L219.056,589.448
	c-14.957-14.957-22.611-33.813-22.931-56.585c-0.319-22.756,7.319-41.947,22.931-57.544c16.252-16.269,35.444-24.401,57.544-24.401
	H311.989L311.989,450.918z M688.012,532.863H629.72h-21.708V222.281H391.989v310.583H364.28h-52.291H276.6L500,759.187
	l223.4-226.322L688.012,532.863L688.012,532.863z"/>
</svg>
