<?xml version="1.0" encoding="utf-8"?>
<!-- Generator: Adobe Illustrator 14.0.0, SVG Export Plug-In . SVG Version: 6.00 Build 43363)  -->
<!DOCTYPE svg PUBLIC "-//W3C//DTD SVG 1.1//EN" "http://www.w3.org/Graphics/SVG/1.1/DTD/svg11.dtd">
<svg version="1.1" id="_x31_" xmlns="http://www.w3.org/2000/svg" xmlns:xlink="http://www.w3.org/1999/xlink" x="0px" y="0px"
	 width="508.406px" height="1000px" viewBox="245.798 0 508.406 1000" enable-background="new 245.798 0 508.406 1000"
	 xml:space="preserve">
<path d="M500,145.889l64.752,65.294L740.936,387c9.004,9.003,13.269,19.996,13.269,32.383s-4.427,23.19-13.269,32.369
	c-8.84,9.193-19.644,13.809-32.383,13.809c-12.738,0-23.34-4.819-32.383-13.809l-48.087-47.843l-73.905-73.53v333.094H445.735
	V330.466l-73.817,73.443l-48.087,47.843c-9.043,8.989-19.645,13.809-32.383,13.809s-23.542-4.615-32.383-13.809
	c-8.84-9.179-13.267-19.982-13.267-32.369s4.265-23.394,13.267-32.383l176.184-175.818L500,145.889L500,145.889z M445.735,854.111
	v-95.328h108.442v95.328H445.735z"/>
</svg>
