<svg width="990.836" height="1000" xmlns="http://www.w3.org/2000/svg" xmlns:svg="http://www.w3.org/2000/svg">

 <g>
  <title>Layer 1</title>
  <g id="svg_1">
   <path id="svg_2" d="m644.66595,153.83c95.58801,0 182.13,38.748 244.77502,101.394c62.64697,62.646 101.39502,149.18799 101.39502,244.776s-38.74805,182.13 -101.39502,244.776c-62.64502,62.646 -149.18701,101.39398 -244.77502,101.39398c-95.58698,0 -182.13,-38.74799 -244.77499,-101.39398c-62.646,-62.646 -101.39499,-149.18799 -101.39499,-244.776s38.74899,-182.13 101.39499,-244.776s149.18802,-101.394 244.77499,-101.394l0,0zm188.21399,157.95699c-48.16602,-48.16599 -114.70898,-77.957 -188.21399,-77.957c-73.50403,0 -140.048,29.79102 -188.21301,77.957c-48.16498,48.16501 -77.95697,114.70901 -77.95697,188.21301s29.79199,140.04797 77.957,188.21399c48.16501,48.16504 114.70901,77.95599 188.21298,77.95599c73.505,0 140.04803,-29.79095 188.21405,-77.95599c48.16498,-48.16602 77.95599,-114.70996 77.95599,-188.21399s-29.79102,-140.048 -77.95605,-188.21301z"/>
   <path id="svg_3" d="m188.53697,466.40601c20.90799,0 37.85699,15.04102 37.85699,33.59399s-16.94901,33.59399 -37.85699,33.59399l-150.68,0c-20.908,0 -37.857,-15.04095 -37.857,-33.59399c0,-18.55399 16.95,-33.59399 37.857,-33.59399l150.68,0z"/>
   <path id="svg_4" d="m294.88196,196.375c20.90799,0 37.85699,15.041 37.85699,33.595c0,18.554 -16.94998,33.595 -37.85699,33.595l-96.94,0c-20.90799,0 -37.85699,-15.041 -37.85699,-33.595c0,-18.554 16.95,-33.595 37.85699,-33.595l96.94,0z"/>
   <path id="svg_5" d="m294.88196,736.43701c20.90799,0 37.85699,15.03998 37.85699,33.59497c0,18.55402 -16.94998,33.59503 -37.85699,33.59503l-96.94,0c-20.90799,0 -37.85699,-15.04102 -37.85699,-33.59503s16.95,-33.59497 37.85699,-33.59497l96.94,0z"/>
   <path id="svg_6" d="m208.55496,331.39099c20.90799,0 37.85699,15.04099 37.85699,33.59399c0,18.55402 -16.94901,33.595 -37.85699,33.595l-123.283,0c-20.908,0 -37.85699,-15.04099 -37.85699,-33.595c0,-18.55301 16.949,-33.59399 37.85699,-33.59399l123.283,0z"/>
   <path id="svg_7" d="m208.55496,601.42102c20.90799,0 37.85699,15.04102 37.85699,33.59497c0,18.55505 -16.94901,33.59601 -37.85699,33.59601l-123.283,0c-20.908,0 -37.85699,-15.04095 -37.85699,-33.59601c0,-18.55396 16.949,-33.59497 37.85699,-33.59497l123.283,0z"/>
   <path id="svg_8" d="m602.88794,305.32199c-0.17297,-22.005 17.526,-39.98401 39.53101,-40.15601s39.98297,17.526 40.15601,39.53101l1.935,194.98901c0.17297,22.00601 -17.52502,39.98398 -39.53101,40.15598c-22.005,0.172 -39.98199,-17.52496 -40.15503,-39.53098l-1.93597,-194.98901z"/>
   <path id="svg_9" d="m796.91595,579.43701c16.65399,14.41101 18.47302,39.59698 4.06299,56.25c-14.40997,16.65497 -39.59601,18.47498 -56.25,4.06299l-126.15698,-109.59399c-16.65399,-14.41101 -18.474,-39.59601 -4.06299,-56.25c14.41101,-16.655 39.59698,-18.47501 56.25,-4.06299l126.15698,109.59399z"/>
  </g>
 </g>
</svg>
