<?xml version="1.0" encoding="utf-8"?>
<!-- Generator: Adobe Illustrator 14.0.0, SVG Export Plug-In . SVG Version: 6.00 Build 43363)  -->
<!DOCTYPE svg PUBLIC "-//W3C//DTD SVG 1.1//EN" "http://www.w3.org/Graphics/SVG/1.1/DTD/svg11.dtd">
<svg version="1.1" id="_x31_" xmlns="http://www.w3.org/2000/svg" xmlns:xlink="http://www.w3.org/1999/xlink" x="0px" y="0px"
	 width="466.14px" height="1000px" viewBox="266.93 0 466.14 1000" enable-background="new 266.93 0 466.14 1000"
	 xml:space="preserve">
<path d="M266.93,500l82.816,90.85l283.681,314.661c11.401,12.632,25.379,18.615,41.073,18.615c15.711,0,29.448-6.23,41.072-18.615
	c11.659-12.401,17.497-27.561,17.497-45.453c0-17.874-6.097-32.746-17.497-45.435l-60.699-67.449L432.563,500l222.312-247.175
	l60.699-67.487c11.4-12.688,17.497-27.561,17.497-45.435s-5.854-33.031-17.497-45.435c-11.643-12.384-25.361-18.595-41.072-18.595
	c-15.694,0-29.688,6.002-41.073,18.595L349.746,409.15L266.93,500z"/>
</svg>
