<?xml version="1.0" encoding="utf-8"?>
<!-- Generator: Adobe Illustrator 14.0.0, SVG Export Plug-In . SVG Version: 6.00 Build 43363)  -->
<!DOCTYPE svg PUBLIC "-//W3C//DTD SVG 1.1//EN" "http://www.w3.org/Graphics/SVG/1.1/DTD/svg11.dtd">
<svg version="1.1" id="_x31_" xmlns="http://www.w3.org/2000/svg" xmlns:xlink="http://www.w3.org/1999/xlink" x="0px" y="0px"
	 width="590.571px" height="1000px" viewBox="219.602 0 590.571 1000" enable-background="new 219.602 0 590.571 1000"
	 xml:space="preserve">
<path d="M405.829,423.517h218.146V340.86c0-30.119-10.728-55.886-32.155-77.313c-21.442-21.428-47.194-31.891-77.314-31.389
	c-30.104,0.516-55.872,10.979-77.3,31.389s-31.891,46.176-31.375,77.313L405.829,423.517L405.829,423.517z M318.024,789.285h393.728
	V518.604H318.024V789.285L318.024,789.285z M810.173,464.071v383.082c0,11.202-4.073,20.66-12.233,28.306
	c-8.161,7.646-17.886,12.263-29.088,12.263H260.938c-11.69,0-21.442-4.115-29.087-12.263c-7.631-8.134-12.249-17.578-12.249-28.306
	V464.071c0-11.23,4.087-20.926,12.249-29.087c8.147-8.147,17.843-11.468,29.087-11.468h62.234V340.86
	c0-52.049,18.861-96.956,56.625-134.72c37.764-37.764,82.657-56.639,134.707-56.639c52.063,0,97.208,18.875,135.475,56.639
	c38.28,37.764,56.904,82.671,55.888,134.72v82.657h62.985c11.746,0,21.442,3.822,29.088,11.468
	C805.598,442.643,810.173,452.366,810.173,464.071z"/>
</svg>
