<?xml version="1.0" encoding="utf-8"?>
<!-- Generator: Adobe Illustrator 14.0.0, SVG Export Plug-In . SVG Version: 6.00 Build 43363)  -->
<!DOCTYPE svg PUBLIC "-//W3C//DTD SVG 1.1//EN" "http://www.w3.org/Graphics/SVG/1.1/DTD/svg11.dtd">
<svg version="1.1" id="_x31_" xmlns="http://www.w3.org/2000/svg" xmlns:xlink="http://www.w3.org/1999/xlink" x="0px" y="0px"
	 width="1106px" height="1000px" viewBox="0 0 1106 1000" enable-background="new 0 0 1106 1000" xml:space="preserve">
<g>
	<path fill-rule="evenodd" clip-rule="evenodd" d="M212.55,282.701c0,14.63-5.971,27.932-15.607,37.568
		c-9.591,9.651-22.923,15.608-37.583,15.608s-27.978-5.957-37.599-15.578l-0.855-0.931c-9.132-9.56-14.722-22.48-14.722-36.667
		V117.385c0-15.791,3.192-30.971,8.949-44.807c5.971-14.401,14.707-27.352,25.503-38.148c10.782-10.782,23.732-19.517,38.118-25.488
		c13.851-5.757,29.031-8.949,44.822-8.949H988.79c15.821,0,30.971,3.192,44.822,8.949l0.871,0.397
		c14.08,5.971,26.74,14.569,37.262,25.091c10.736,10.736,19.487,23.717,25.474,38.148c5.772,13.836,8.965,28.986,8.965,44.807V882.6
		c0,15.806-3.192,30.971-8.95,44.837c-5.971,14.34-14.69,27.336-25.488,38.118c-10.735,10.735-23.716,19.486-38.148,25.473
		c-13.836,5.788-28.985,8.98-44.807,8.98H223.576c-15.791,0-30.971-3.192-44.822-8.965c-14.386-5.972-27.336-14.691-38.118-25.488
		c-10.782-10.767-19.532-23.732-25.503-38.133c-5.757-13.852-8.949-29.017-8.949-44.822V717.3c0-14.631,5.971-27.933,15.607-37.568
		c9.591-9.651,22.908-15.607,37.568-15.607s27.993,5.956,37.614,15.577l0.855,0.932c9.132,9.56,14.722,22.479,14.722,36.667v165.3
		c0,1.512,0.29,2.916,0.764,4.123c0.611,1.344,1.481,2.627,2.504,3.65c2.016,2,4.78,3.283,7.758,3.283H988.79
		c1.497,0,2.901-0.306,4.108-0.764c1.328-0.611,2.611-1.497,3.649-2.52c2.017-2.032,3.284-4.78,3.284-7.773V117.385
		c0-1.497-0.291-2.901-0.764-4.108c-0.611-1.329-1.481-2.611-2.521-3.65c-2.016-2.016-4.779-3.284-7.758-3.284H223.576
		c-1.512,0-2.901,0.291-4.108,0.764c-1.344,0.611-2.611,1.481-3.65,2.52c-1.023,1.023-1.894,2.306-2.458,3.665l-0.244,0.55
		c-0.352,1.069-0.565,2.275-0.565,3.543V282.701z"/>
	<path fill-rule="evenodd" clip-rule="evenodd" d="M481.575,692.132c-10.262,9.819-23.549,14.753-36.713,14.753
		c-13.561,0-27.153-5.224-37.538-15.577c-10.415-10.446-15.638-24.038-15.638-37.599c0-13.531,5.223-27.153,15.577-37.538
		l62.522-62.583H52.993c-14.661,0-27.978-5.956-37.599-15.577l-0.855-0.932C5.407,527.52-0.183,514.6-0.183,500.413
		c0-14.63,5.971-27.917,15.577-37.538c9.621-9.682,22.938-15.638,37.599-15.638H470.61l-64.171-64.232
		c-9.82-10.263-14.752-23.519-14.752-36.713c0-13.607,5.223-27.245,15.577-37.599c10.385-10.384,23.992-15.577,37.599-15.577
		c13.592,0,27.214,5.192,37.599,15.577l154.548,154.61c9.82,10.263,14.737,23.534,14.737,36.698
		c0,13.606-5.192,27.214-15.577,37.599L481.575,692.132z"/>
</g>
</svg>
