<?xml version="1.0" encoding="utf-8"?>
<!-- Generator: Adobe Illustrator 14.0.0, SVG Export Plug-In . SVG Version: 6.00 Build 43363)  -->
<!DOCTYPE svg PUBLIC "-//W3C//DTD SVG 1.1//EN" "http://www.w3.org/Graphics/SVG/1.1/DTD/svg11.dtd">
<svg version="1.1" id="_x31_" xmlns="http://www.w3.org/2000/svg" xmlns:xlink="http://www.w3.org/1999/xlink" x="0px" y="0px"
	 width="1000px" height="1000px" viewBox="0 0 1000 1000" enable-background="new 0 0 1000 1000" xml:space="preserve">
<g>
	<path fill-rule="evenodd" clip-rule="evenodd" d="M920.025,799.392c20.537,0,37.34,6.237,50.409,18.712
		c13.069,12.476,19.604,27.029,19.604,43.662c0,16.621-7.001,31.175-21.004,43.649c-14.002,12.475-30.339,18.712-49.009,18.712
		H79.961c-18.656,0-34.992-6.237-48.995-18.712S9.962,878.387,9.962,861.766c0-16.633,6.535-31.187,19.604-43.662
		c13.069-12.475,29.872-18.712,50.395-18.712H920.025z"/>
	<path fill-rule="evenodd" clip-rule="evenodd" d="M79.961,200.609c-18.656,0-34.992-6.238-48.995-18.712
		S9.962,154.868,9.962,138.247c0-16.633,6.535-31.187,19.604-43.662C42.635,82.11,59.438,75.873,79.961,75.873h840.064
		c20.537,0,37.34,6.237,50.409,18.712s19.604,27.029,19.604,43.662c0,16.621-7.001,31.175-21.004,43.649
		c-14.002,12.475-30.339,18.712-49.009,18.712H79.961z"/>
	<path fill-rule="evenodd" clip-rule="evenodd" d="M79.961,562.387c-18.656,0-34.992-6.238-48.995-18.716
		S9.962,516.637,9.962,500.014c0-16.636,6.535-31.193,19.604-43.67c13.069-12.478,29.872-18.716,50.395-18.716h840.064
		c20.537,0,37.34,6.238,50.409,18.716c13.069,12.477,19.604,27.034,19.604,43.67c0,16.623-7.001,31.18-21.004,43.657
		c-14.002,12.478-30.339,18.716-49.009,18.716H79.961z"/>
</g>
</svg>
