<?xml version="1.0" encoding="utf-8"?>
<!-- Generator: Adobe Illustrator 14.0.0, SVG Export Plug-In . SVG Version: 6.00 Build 43363)  -->
<!DOCTYPE svg PUBLIC "-//W3C//DTD SVG 1.1//EN" "http://www.w3.org/Graphics/SVG/1.1/DTD/svg11.dtd">
<svg version="1.1" id="_x31_" xmlns="http://www.w3.org/2000/svg" xmlns:xlink="http://www.w3.org/1999/xlink" x="0px" y="0px"
	 width="937.516px" height="1000px" viewBox="31.243 0 937.516 1000" enable-background="new 31.243 0 937.516 1000"
	 xml:space="preserve">
<g>
	<path d="M499.997,793.899c-85.739,0-166.566-19.668-238.561-66.954c-45.208-29.692-87.518-63.62-126.988-100.573
		c-32.867-30.772-65.429-62.654-94.194-97.34c-13.053-15.74-11.674-47.521,2.506-62.226c29.377-30.465,58.483-61.161,89.113-90.386
		c40.135-38.295,83.163-73.7,129.563-104.171c72.003-47.284,152.813-66.954,238.561-66.954c85.72,0,166.58,19.665,238.562,66.94
		c46.403,30.477,89.43,65.894,129.575,104.184c30.636,29.218,59.737,59.916,89.104,90.39c14.184,14.72,15.568,46.476,2.503,62.225
		c-28.771,34.68-61.326,66.566-94.193,97.339c-39.473,36.956-81.774,70.907-126.986,100.603
		C666.587,774.245,585.704,793.899,499.997,793.899L499.997,793.899z M140.784,499.57l8.127,8.657
		c50.463,53.765,105.856,104.232,167.856,144.438c55.355,35.895,117.611,51.505,183.23,51.512
		c65.622,0.007,127.874-15.617,183.229-51.512c61.996-40.201,117.42-90.646,167.854-144.433l8.116-8.655l-8.137-8.619
		c-50.632-53.63-105.816-105.166-167.795-145.554c-55.275-36.023-117.671-51.542-183.269-51.542
		c-65.603,0-127.989,15.51-183.269,51.542c-61.971,40.393-117.199,91.881-167.806,145.538L140.784,499.57z"/>
	<path d="M499.997,343.255c86.386,0,156.344,69.958,156.344,156.343c0,86.387-69.958,156.345-156.344,156.345
		c-86.385,0-156.343-69.958-156.343-156.345C343.654,413.212,413.612,343.255,499.997,343.255L499.997,343.255z M499.997,420.789
		c-43.551,0-78.81,35.258-78.81,78.809c0,43.553,35.259,78.811,78.81,78.811c43.552,0,78.81-35.258,78.81-78.811
		C578.807,456.046,543.549,420.789,499.997,420.789z"/>
</g>
</svg>
