<?xml version="1.0" encoding="utf-8"?>
<!-- Generator: Adobe Illustrator 14.0.0, SVG Export Plug-In . SVG Version: 6.00 Build 43363)  -->
<!DOCTYPE svg PUBLIC "-//W3C//DTD SVG 1.1//EN" "http://www.w3.org/Graphics/SVG/1.1/DTD/svg11.dtd">
<svg version="1.1" id="_x31_" xmlns="http://www.w3.org/2000/svg" xmlns:xlink="http://www.w3.org/1999/xlink" x="0px" y="0px"
	 width="839.023px" height="1000px" viewBox="80.489 0 839.023 1000" enable-background="new 80.489 0 839.023 1000"
	 xml:space="preserve">
<path d="M380.325,577.579c-0.979,1.804-2.125,3.539-3.447,5.181L258.017,742.048l160.28-119.599
	c1.389-1.037,2.832-1.952,4.314-2.751c24.292-14.146,40.267-0.121,43.94,2.934l99.724,99.686l40.435-40.371
	c15.024-17.331,18.432-84.405,19.383-107.127c1.104-26.352,1.227-52.813,0.791-79.183c-0.2-12.127-0.469-24.328-1.027-36.445
	c-0.503-10.866,3.666-21.625,11.344-29.325l47.339-47.476c4.688-4.703,10.468-8.101,16.85-9.922l99.45-36.229l24.646-24.646
	L688.473,174.581l-24.646,24.646l-37.148,101.977c-1.95,5.356-5.025,10.21-9.054,14.247l-47.358,47.466
	c-8.396,8.415-20.093,12.497-31.879,11.189c-13.887-0.554-27.802-0.87-41.696-1.036c-23.803-0.286-47.665-0.103-71.449,0.888
	c-21.942,0.915-92.285,4.401-107.994,20.171l-39.501,39.657l99.697,99.716C380.543,536.604,394.277,553.977,380.325,577.579
	L380.325,577.579z M301.516,567.823L195.022,461.358c-15.224-15.227-15.225-39.927,0-55.152l67.085-67.085
	c27.195-27.194,97.507-35.817,134.369-39.207c25.402-2.336,50.969-3.523,76.472-4.007c17.99-0.342,36.006-0.331,53.998,0.047
	l29.626-29.626l37.061-101.781c1.961-5.383,5.088-10.242,9.133-14.296l58.209-58.326c15.216-15.248,39.931-15.229,55.155-0.003
	l192.015,192.016c15.159,15.159,15.156,39.844,0.001,55.004l-57.898,57.919c-4.107,4.29-9.148,7.542-14.729,9.573l-101.778,37.051
	l-29.626,29.645c0.378,17.994,0.377,36.015,0.023,54.008c-0.499,25.503-1.705,51.069-4.061,76.473
	c-3.404,36.727-11.516,100.419-35.202,129.777c-1.189,1.625-2.506,3.156-3.93,4.58l-67.075,67.075
	c-15.229,15.23-39.933,15.229-55.162,0L432.242,698.559L161.601,912.706c-13.521,10.036-32.737,8.966-45.041-3.25l-24.263-24.253
	c-13.482-11.764-15.819-32.148-4.939-46.74L301.516,567.823z"/>
</svg>
