<?xml version="1.0" encoding="utf-8"?>
<!-- Generator: Adobe Illustrator 14.0.0, SVG Export Plug-In . SVG Version: 6.00 Build 43363)  -->
<!DOCTYPE svg PUBLIC "-//W3C//DTD SVG 1.1//EN" "http://www.w3.org/Graphics/SVG/1.1/DTD/svg11.dtd">
<svg version="1.1" id="_x31_" xmlns="http://www.w3.org/2000/svg" xmlns:xlink="http://www.w3.org/1999/xlink" x="0px" y="0px"
	 width="651.201px" height="1000px" viewBox="174.4 0 651.201 1000" enable-background="new 174.4 0 651.201 1000"
	 xml:space="preserve">
<path d="M214.4,174.4h571.201c22.092,0,40,17.909,40,40v386.4c0,11.169-4.58,21.268-11.962,28.523L629.081,813.882
	c-7.81,7.811-18.045,11.714-28.281,11.714v0.004H214.4c-22.091,0-40-17.907-40-39.999V214.4
	C174.4,192.309,192.309,174.4,214.4,174.4L214.4,174.4z M322.993,391.8h324c13.808,0,25-11.193,25-25c0-13.807-11.192-25-25-25h-324
	c-13.808,0-25,11.193-25,25C297.993,380.607,309.188,391.8,322.993,391.8L322.993,391.8z M322.993,498H513.2
	c13.807,0,25-11.193,25-25s-11.193-25-25-25H322.993c-13.808,0-25,11.193-25,25S309.188,498,322.993,498L322.993,498z
	 M570.8,745.601V600.8c0-16.567,13.433-30,30-30h144.801V254.4H254.4v491.201H570.8L570.8,745.601z M699.038,630.8H630.8v68.238
	L699.038,630.8z"/>
</svg>
