<svg width="899" height="999.9999999999999" xmlns="http://www.w3.org/2000/svg" xmlns:svg="http://www.w3.org/2000/svg">
 <g>
  <title>Layer 1</title>
  <path fill-rule="evenodd" clip-rule="evenodd" d="m12.39694,831.89502c-14.883,16.85797 -16.36,32.22302 -4.464,46.11102l34.214,34.21399c17.854,15.862 34.71101,15.862 50.574,0l141.303,-141.32001c36.70299,20.82397 75.37999,31.24402 116.032,31.24402c63.46698,0 118.74496,-23.55402 165.85098,-70.659c47.10602,-47.10602 70.66003,-102.38501 70.66003,-165.85205s-22.31702,-117.76596 -66.935,-162.88095c-44.63403,-45.13101 -98.67603,-67.68903 -162.14304,-67.68903c-63.46698,0 -119.00101,23.55402 -166.59,70.659c-47.60399,47.10602 -71.397,102.38501 -71.397,165.85202c0,43.63898 11.399,83.79199 34.19699,120.495l-141.30198,139.82599l0,0l0.00001,0zm189.433,-537.36603c-16.63301,0 -30.116,-13.483 -30.116,-30.116l0,-142.73399c0,-13.011 4.528,-23.751 13.57199,-32.234c9.043,-8.482 19.79601,-13.011 32.23302,-13.572l424.12698,0c12.43701,0 26.30298,3.112 41.57098,9.324c15.26904,6.225 27.14502,13.866 35.62701,22.909l147.59601,147.59599c9.04401,9.043 16.67096,20.91901 22.896,35.62698c6.22498,14.707 9.33698,28.84 9.33698,42.41202l0,544.57895c0,13.01105 -4.24799,23.75104 -12.72998,32.23303s-19.23499,13.57202 -32.23303,13.57202l-544.112,0c-16.633,0 -30.116,-13.48303 -30.116,-30.11603s13.483,-30.11603 30.116,-30.11603c0.28699,0 0.57199,0.005 0.85699,0.013l527.98505,0l0,-485.21292l-196.79401,0c-13.01099,0 -23.75098,-4.51501 -32.23297,-13.57199c-8.48206,-9.043 -13.01105,-19.50302 -13.57202,-31.379l0,-197.64902l-363.89502,0l0,128.32001l0,0c0,16.63202 -13.48398,30.116 -30.11598,30.116l0,0l0,-0.00003zm314.83101,271.10498c0,43.62201 -16.85803,82.29901 -50.57397,116.01599c-33.73203,33.716 -72.39304,50.57404 -116.03101,50.57404s-81.06299,-15.60504 -112.30699,-46.85004c-31.24402,-31.24298 -46.85002,-68.92499 -46.85002,-113.04498c0,-44.13599 16.85802,-82.81302 50.57402,-116.03201c33.71599,-33.21899 72.39296,-49.836 116.01601,-49.836c43.638,0 81.07901,15.62201 112.30701,46.866c31.24396,31.22702 46.86496,68.66803 46.86496,112.30701l0,0zm139.41101,-425.29297l0,178.133l178.13397,0c-2.83197,-9.61801 -6.22498,-16.12299 -10.17902,-19.51599l-148.45099,-148.438c-3.39301,-3.955 -9.89801,-7.34801 -19.50397,-10.179z" id="svg_1" fill="black"/>
 </g>

</svg>
