<?xml version="1.0" encoding="utf-8"?>
<!-- Generator: Adobe Illustrator 14.0.0, SVG Export Plug-In . SVG Version: 6.00 Build 43363)  -->
<!DOCTYPE svg PUBLIC "-//W3C//DTD SVG 1.1//EN" "http://www.w3.org/Graphics/SVG/1.1/DTD/svg11.dtd">
<svg version="1.1" id="_x31_" xmlns="http://www.w3.org/2000/svg" xmlns:xlink="http://www.w3.org/1999/xlink" x="0px" y="0px"
	 width="789.234px" height="1000px" viewBox="105.384 0 789.234 1000" enable-background="new 105.384 0 789.234 1000"
	 xml:space="preserve">
<path d="M105.384,879.506c0,11.011,3.899,20.503,11.697,28.285c7.799,7.798,17.562,11.713,29.276,11.713
	c13.646,0,24.96-6.024,33.158-18.536c31.465-47.956,124.74-224.022,165.393-245.164c40.652-21.142,88.289-33.653,142.909-37.553
	v58.534c0,22.1,8.134,41.292,24.4,57.544c15.597,15.612,34.788,23.25,57.544,22.931c22.771-0.318,41.627-7.974,56.585-22.931
	l256.559-251.685c7.813-7.798,11.713-17.562,11.713-29.259c0-11.713-3.898-21.461-11.713-29.274L627.32,172.426
	c-14.957-14.957-33.975-22.595-57.064-22.915c-23.091-0.335-42.443,7.319-58.039,22.915c-16.268,16.268-24.4,35.444-24.4,57.56
	v69.257c-94.299,18.873-172.024,65.694-233.147,140.479c-61.124,74.786-149.285,301.926-149.285,398.813V879.506L105.384,879.506z
	 M527.813,535.331c-223.543,5.177-245.146,87.89-312.135,142.523C231.29,612.162,301.825,499.887,353.2,454.36
	c51.375-45.527,111.54-72.197,180.478-79.996l36.083-1.949V229.986l226.323,223.399l-226.323,223.4V534.354L527.813,535.331z"/>
</svg>
