<?xml version="1.0" encoding="utf-8"?>
<!-- Generator: Adobe Illustrator 14.0.0, SVG Export Plug-In . SVG Version: 6.00 Build 43363)  -->
<!DOCTYPE svg PUBLIC "-//W3C//DTD SVG 1.1//EN" "http://www.w3.org/Graphics/SVG/1.1/DTD/svg11.dtd">
<svg version="1.1" id="_x31_" xmlns="http://www.w3.org/2000/svg" xmlns:xlink="http://www.w3.org/1999/xlink" x="0px" y="0px"
	 width="789.232px" height="1000px" viewBox="105.384 0 789.232 1000" enable-background="new 105.384 0 789.232 1000"
	 xml:space="preserve">
<path d="M894.616,879.506c0,11.011-3.898,20.503-11.697,28.285c-7.798,7.798-17.562,11.713-29.274,11.713
	c-13.646,0-24.961-6.024-33.158-18.536c-31.465-47.956-124.739-224.022-165.393-245.164c-40.652-21.142-88.29-33.653-142.909-37.553
	v58.534c0,22.1-8.134,41.292-24.4,57.544c-15.597,15.612-34.789,23.25-57.544,22.931c-22.771-0.318-41.627-7.974-56.585-22.931
	L117.097,482.645c-7.814-7.798-11.713-17.562-11.713-29.259c0-11.713,3.899-21.461,11.713-29.274L372.68,172.426
	c14.958-14.957,33.975-22.595,57.064-22.915c23.091-0.335,42.443,7.319,58.04,22.915c16.267,16.268,24.4,35.444,24.4,57.56v69.257
	c94.299,18.873,172.024,65.694,233.147,140.479c61.123,74.786,149.284,301.926,149.284,398.813V879.506L894.616,879.506z
	 M472.188,535.331c223.543,5.177,245.147,87.89,312.136,142.523C768.711,612.162,698.175,499.887,646.8,454.36
	c-51.376-45.527-111.54-72.197-180.478-79.996l-36.083-1.949V229.986l-226.323,223.4L430.24,676.785V534.354L472.188,535.331z"/>
</svg>
