<?xml version="1.0" encoding="utf-8"?>
<!-- Generator: Adobe Illustrator 14.0.0, SVG Export Plug-In . SVG Version: 6.00 Build 43363)  -->
<!DOCTYPE svg PUBLIC "-//W3C//DTD SVG 1.1//EN" "http://www.w3.org/Graphics/SVG/1.1/DTD/svg11.dtd">
<svg version="1.1" id="_x31_" xmlns="http://www.w3.org/2000/svg" xmlns:xlink="http://www.w3.org/1999/xlink" x="0px" y="0px"
	 width="765.547px" height="1000px" viewBox="117.227 0 765.547 1000" enable-background="new 117.227 0 765.547 1000"
	 xml:space="preserve">
<g>
	<g>
		<path d="M214.715,825.927c-18.859,23.548-53.358,27.396-76.934,8.556c-23.589-18.854-27.447-53.378-8.597-76.971
			c6.763-8.466,14.219-16.293,22.022-23.807c20.352-19.602,43.306-37.002,67.256-51.946
			c84.382-52.649,182.146-75.511,281.065-75.511c99.696,0,197.676,23.745,282.151,77.639c24.159,15.412,47.257,33.325,67.706,53.435
			c7.651,7.523,15.592,15.847,22.125,24.403c18.393,24.093,13.775,58.611-10.316,77.01c-24.09,18.395-58.613,13.775-76.988-10.293
			c-4.993-6.604-11.354-13.106-17.317-18.794c-15.35-14.632-32.771-27.468-50.923-38.387
			c-65.026-39.115-141.146-54.813-216.438-54.813c-74.995,0-151.251,15.12-216.443,53.406c-18.12,10.644-35.548,23.182-50.93,37.531
			C226.101,813.035,219.819,819.368,214.715,825.927z"/>
	</g>
	<g>
		<path d="M694.218,391.273c65.756,0,119.386-53.63,119.386-119.386c0-65.756-53.63-119.385-119.386-119.385
			c-65.755,0-119.385,53.63-119.385,119.385C574.833,337.642,628.463,391.273,694.218,391.273z"/>
	</g>
	<g>
		<path d="M303.391,393.775c67.134,0,121.888-54.754,121.888-121.887c0-67.133-54.754-121.887-121.888-121.887
			c-67.133,0-121.887,54.754-121.887,121.887C181.504,339.021,236.258,393.775,303.391,393.775z"/>
	</g>
</g>
</svg>
