<?xml version="1.0" encoding="utf-8"?>
<!-- Generator: Adobe Illustrator 14.0.0, SVG Export Plug-In . SVG Version: 6.00 Build 43363)  -->
<!DOCTYPE svg PUBLIC "-//W3C//DTD SVG 1.1//EN" "http://www.w3.org/Graphics/SVG/1.1/DTD/svg11.dtd">
<svg version="1.1" id="_x31_" xmlns="http://www.w3.org/2000/svg" xmlns:xlink="http://www.w3.org/1999/xlink" x="0px" y="0px"
	 width="620.723px" height="1000px" viewBox="189.638 0 620.723 1000" enable-background="new 189.638 0 620.723 1000"
	 xml:space="preserve">
<path d="M727.868,312.372c4.167-1.389,8.626-2.102,13.378-2.102c12.226,0,22.002,4.879,30.573,13.45l25.693,25.676
	c8.571,8.553,12.849,18.769,12.849,30.593c0,11.823-4.095,22.404-12.849,31.177l-58.333,58.333L531.176,677.504
	c-8.132,8.15-18.549,12.227-31.177,12.227s-23.044-4.075-31.177-12.227L260.818,469.499l-58.333-58.333
	c-8.754-8.772-12.847-19.354-12.847-31.177c0-11.824,4.276-22.04,12.847-30.593l25.694-25.676
	c8.571-8.571,18.348-13.45,30.574-13.45c4.751,0,9.21,0.712,13.377,2.102l196.692,196.691c8.132,8.15,18.549,12.227,31.177,12.227
	s23.045-4.075,31.177-12.227L727.868,312.372z"/>
</svg>
