<svg width="717" height="1000" xmlns="http://www.w3.org/2000/svg" xmlns:svg="http://www.w3.org/2000/svg">
  <path d="m664.84375,224.90625c-13.29999,0.10001 -26.58752,5.18124 -36.6875,15.28125l-400.21875,400.625l-139.28125,-140.125c-10.1,-10.20001 -23.41875,-15.28125 -36.71875,-15.28125c-13.2,0 -26.49375,4.99374 -36.59375,15.09375c-10.2,10.10001 -15.28125,23.38751 -15.28125,36.6875c0,13.20001 4.99375,26.52502 15.09375,36.625l176,177c10.10001,10.20001 23.3875,15.28125 36.6875,15.28125c13.2,0 26.49374,-4.99377 36.59375,-15.09375l437.21875,-437.6875c10.09998,-10.10001 15.09375,-23.42499 15.09375,-36.625c-0.09998,-13.29999 -5.21252,-26.58749 -15.3125,-36.6875c-10.09998,-10.10001 -23.39374,-15.09375 -36.59375,-15.09375z"/>
</svg>
