<?xml version="1.0" encoding="utf-8"?>
<!-- Generator: Adobe Illustrator 14.0.0, SVG Export Plug-In . SVG Version: 6.00 Build 43363)  -->
<!DOCTYPE svg PUBLIC "-//W3C//DTD SVG 1.1//EN" "http://www.w3.org/Graphics/SVG/1.1/DTD/svg11.dtd">
<svg version="1.1" id="_x31_" xmlns="http://www.w3.org/2000/svg" xmlns:xlink="http://www.w3.org/1999/xlink" x="0px" y="0px"
	 width="825.02px" height="1000px" viewBox="87.491 0 825.02 1000" enable-background="new 87.491 0 825.02 1000"
	 xml:space="preserve">
<g>
	<path d="M169.996,582.505c45.442,0,82.505-37.063,82.505-82.505s-37.063-82.505-82.505-82.505S87.491,454.558,87.491,500
		S124.554,582.505,169.996,582.505z"/>
	<path d="M500,582.505c45.442,0,82.505-37.063,82.505-82.505S545.442,417.495,500,417.495S417.496,454.558,417.496,500
		S454.559,582.505,500,582.505z"/>
	<path d="M830.006,582.505c45.441,0,82.505-37.063,82.505-82.505s-37.063-82.505-82.505-82.505
		c-45.441,0-82.506,37.063-82.506,82.505S784.563,582.505,830.006,582.505z"/>
</g>
</svg>
