<?xml version="1.0" encoding="utf-8"?>
<!-- Generator: Adobe Illustrator 14.0.0, SVG Export Plug-In . SVG Version: 6.00 Build 43363)  -->
<!DOCTYPE svg PUBLIC "-//W3C//DTD SVG 1.1//EN" "http://www.w3.org/Graphics/SVG/1.1/DTD/svg11.dtd">
<svg version="1.1" id="_x31_" xmlns="http://www.w3.org/2000/svg" xmlns:xlink="http://www.w3.org/1999/xlink" x="0px" y="0px"
	 width="734.112px" height="1000px" viewBox="132.944 0 734.112 1000" enable-background="new 132.944 0 734.112 1000"
	 xml:space="preserve">
<path d="M132.944,462.567c0,18.132,5.799,34.128,18.646,46.615l226.796,220.574c12.862,12.504,27.97,19.426,46.631,19.426
	c18.646,0,33.801-6.844,46.632-19.426L847.63,361.166c12.815-12.566,19.426-27.72,19.426-45.852s-6.471-33.411-19.426-45.852
	c-12.956-12.426-28.5-18.646-46.632-18.646s-33.551,6.626-46.631,19.426l-329.35,321.961L303.613,473.418L245.632,416.7
	c-12.8-12.55-28.5-18.646-46.631-18.646S165.31,404.29,152.37,416.7C139.429,429.125,132.944,444.42,132.944,462.567z"/>
</svg>
