<?xml version="1.0" encoding="utf-8"?>
<!-- Generator: Adobe Illustrator 14.0.0, SVG Export Plug-In . SVG Version: 6.00 Build 43363)  -->
<!DOCTYPE svg PUBLIC "-//W3C//DTD SVG 1.1//EN" "http://www.w3.org/Graphics/SVG/1.1/DTD/svg11.dtd">
<svg version="1.1" id="_x31_" xmlns="http://www.w3.org/2000/svg" xmlns:xlink="http://www.w3.org/1999/xlink" x="0px" y="0px"
	 width="925.934px" height="1000px" viewBox="37.033 0 925.934 1000" enable-background="new 37.033 0 925.934 1000"
	 xml:space="preserve">
<path d="M344.563,317.933v-98.834c0-18.445,7.324-36.026,20.362-49.064c13.04-13.04,30.621-20.363,49.068-20.363H893.54
	c18.449,0,36.026,7.322,49.067,20.363c13.037,13.037,20.359,30.621,20.359,49.064v325.309c0,18.446-7.318,36.026-20.359,49.067
	c-13.041,13.04-30.618,20.362-49.067,20.362h-16.354v96.023c0,10.999-4.347,21.486-12.125,29.265
	c-16.156,16.154-42.367,16.155-58.523,0L681.245,613.838h-25.808v98.831c0,18.448-7.32,36.026-20.361,49.067
	S604.457,782.1,586.008,782.1H318.755L193.464,907.388c-16.156,16.155-42.367,16.154-58.524,0
	c-7.777-7.774-12.12-18.268-12.12-29.264l-0.003-96.024H106.46c-18.446,0-36.03-7.322-49.068-20.362
	c-13.039-13.041-20.359-30.621-20.359-49.067V387.36c0-18.446,7.322-36.027,20.359-49.067c13.038-13.041,30.623-20.36,49.068-20.36
	H344.563L344.563,317.933z M880.193,232.445H427.336v85.487h158.672c18.448,0,36.027,7.319,49.068,20.359
	c13.04,13.04,20.361,30.621,20.361,49.068v143.703h42.947c11.079,0,21.579,4.442,29.404,12.268l66.623,66.62V572.45
	c0-22.851,18.534-41.389,41.384-41.389h44.396V232.445H880.193z M119.807,400.704v298.622h44.396
	c22.85,0,41.384,18.538,41.384,41.387v37.499l66.623-66.62c7.824-7.822,18.328-12.266,29.407-12.266h271.047V400.704H119.807z"/>
</svg>
