<svg width="700" height="780" xmlns="http://www.w3.org/2000/svg">
  <path d="M631 526c-40 0-40-120-40-160s-12-159-76-223c-56-57-125-58-125-58V45c0-40-40-40-40-40s-40 0-40 40v40s-66 6-127 58c-69 58-74 183-74 223s0 160-40 160c-15 0-57 12-57 57 0 46 22 63 57 63h562c35 0 57-17 57-63 0-45-42-57-57-57zM70 586h-1 1zm558 0H72c98-3 98-144 98-220 0-64 13-144 52-177 44-38 93-44 93-44l20-2 54 2c2 0 46 2 84 40 47 48 57 147 57 181 0 76 0 218 98 220zm2 0h1-1zM350 775c53 0 95-43 95-95H255c0 52 42 95 95 95z"/>
</svg>

