<svg width="700" height="780" xmlns="http://www.w3.org/2000/svg">
  <path d="M348 775c53 0 96-43 96-95H253c0 52 43 95 95 95zm0-189H71c97-3 97-144 97-220v-11l-57-46-3 57c0 40 0 160-40 160-16 0-58 12-58 57 0 46 23 63 58 63h457l-74-60H348zm-279 0h-1 1zm244-441 21-2 53 2c2 0 47 2 84 40 47 48 58 147 58 181l1 51 66 54c-7-37-7-83-7-105 0-40-11-159-75-223-57-57-126-58-126-58V45c0-40-40-40-40-40s-40 0-40 40v40s-61 6-121 53l48 39c40-27 78-32 78-32zm374 478L51 105a30 30 0 0 0-42 4c-11 13-9 32 4 42l636 519a30 30 0 1 0 38-47z"/>
</svg>

