<?xml version="1.0" encoding="utf-8"?>
<!-- Generator: Adobe Illustrator 14.0.0, SVG Export Plug-In . SVG Version: 6.00 Build 43363)  -->
<!DOCTYPE svg PUBLIC "-//W3C//DTD SVG 1.1//EN" "http://www.w3.org/Graphics/SVG/1.1/DTD/svg11.dtd">
<svg version="1.1" id="_x31_" xmlns="http://www.w3.org/2000/svg" xmlns:xlink="http://www.w3.org/1999/xlink" x="0px" y="0px"
	 width="620.343px" height="1000px" viewBox="189.828 0 620.343 1000" enable-background="new 189.828 0 620.343 1000"
	 xml:space="preserve">
<path d="M636.831,654.548h0.586l-78.062,78.063c-6.653,6.33-9.979,14.271-9.979,23.798c0,9.51,3.326,17.438,9.979,23.783
	l19.987,20.456c6.683,6.375,14.684,9.524,24.047,9.524c9.351,0,17.365-3.15,24.019-9.524l173.238-173.238
	c6.346-6.652,9.524-14.596,9.524-23.783c0-9.188-3.18-17.291-9.524-24.252l-173.238-172.77c-6.652-6.667-14.597-9.994-23.783-9.994
	c-9.188,0-17.307,3.326-24.281,9.994l-19.988,19.988c-6.652,6.653-9.979,14.595-9.979,23.783c0,9.231,3.326,17.307,9.979,24.282
	l77.036,77.035h-186.97c-33.162,0-86.78-7.077-122.653-33.82c-19.489-14.537-33.542-36.621-33.542-69.563V189.829H189.828v258.479
	c0,71.232,31.462,119.768,75.16,152.356c57.721,43.039,136.604,54.425,184.434,54.425h187.409V654.548L636.831,654.548z
	 M636.831,552.132l0.586,0.586h-0.586V552.132z"/>
</svg>
