<?xml version="1.0" encoding="utf-8"?>
<!-- Generator: Adobe Illustrator 15.0.0, SVG Export Plug-In . SVG Version: 6.00 Build 0)  -->
<!DOCTYPE svg PUBLIC "-//W3C//DTD SVG 1.1//EN" "http://www.w3.org/Graphics/SVG/1.1/DTD/svg11.dtd">
<svg version="1.1" id="_x31_r_copy_23_1_" xmlns="http://www.w3.org/2000/svg" xmlns:xlink="http://www.w3.org/1999/xlink" x="0px"
	 y="0px" width="12.987px" height="16px" viewBox="0 0 12.987 16" enable-background="new 0 0 12.987 16" xml:space="preserve">
<g id="Shape_75">
	<g>
		<path fill-rule="evenodd" clip-rule="evenodd" fill="#676767" d="M10.831,0.01h-8.67c-1.19,0-2.156,0.965-2.156,2.156v11.689
			c0,1.19,0.966,2.155,2.156,2.155h8.67c1.191,0,2.156-0.965,2.156-2.155V2.166C12.987,0.975,12.022,0.01,10.831,0.01z"/>
	</g>
</g>
<g id="Shape_76">
	<g>
		<path fill-rule="evenodd" clip-rule="evenodd" fill="#FFFFFF" d="M2.408,8.267l1.506,1.524L0.002,13.68v0.242
			c0,0-0.003,0.295,0.105,0.625c0.086,0.265,0.268,0.562,0.471,0.782c0.273,0.295,0.556,0.464,0.843,0.563
			c0.239,0.082,0.509,0.111,0.509,0.111h0.466l3.983-3.819l1.425,1.452l0.798-6.249L2.408,8.267z"/>
	</g>
</g>
</svg>
