<?xml version="1.0" encoding="utf-8"?>
<!-- Generator: Adobe Illustrator 15.0.0, SVG Export Plug-In . SVG Version: 6.00 Build 0)  -->
<!DOCTYPE svg PUBLIC "-//W3C//DTD SVG 1.1//EN" "http://www.w3.org/Graphics/SVG/1.1/DTD/svg11.dtd">
<svg version="1.1" id="скрепка_1_" xmlns="http://www.w3.org/2000/svg" xmlns:xlink="http://www.w3.org/1999/xlink" x="0px"
	 y="0px" width="11.865px" height="16px" viewBox="0 0 11.865 16" enable-background="new 0 0 11.865 16" xml:space="preserve">
<g id="Shape_53_copy">
	<g>
		<path fill-rule="evenodd" clip-rule="evenodd" fill="#676767" d="M7.354,5.063c0,0,0.193-0.3,0.191-0.299
			c0.098-0.166,0.032-0.396-0.157-0.52C7.199,4.12,6.964,4.148,6.851,4.304c0.001-0.002-3.467,5.243-3.467,5.243
			c-0.716,1.088-0.014,1.878,0.568,2.261c1.124,0.74,1.946,0.12,2.348-0.489l5.188-7.882c0.314-0.477,0.391-1.055,0.213-1.628
			c-0.17-0.549-0.56-1.04-1.068-1.348C9.777-0.102,8.209-0.391,7.449,0.764L0.518,11.291c-0.937,1.423-0.591,2.869,0.949,3.967
			c1.776,1.11,3.268,0.911,4.225-0.543l1.614-2.463l3.722-5.672c0.109-0.167,0.042-0.407-0.152-0.535
			c-0.193-0.127-0.439-0.097-0.549,0.07l-3.725,5.676l-1.612,2.462c-0.749,1.137-1.74,1.266-3.119,0.404
			c-1.164-0.831-1.385-1.786-0.649-2.904L8.151,1.226c0.532-0.807,1.644-0.45,2.1-0.15c0.329,0.2,0.57,0.506,0.677,0.85
			c0.113,0.365,0.062,0.737-0.142,1.048l-5.189,7.881c-0.536,0.815-0.95,0.543-1.247,0.348c-0.255-0.168-0.731-0.481-0.263-1.193
			L7.354,5.063z"/>
	</g>
</g>
</svg>
