<?xml version="1.0" encoding="utf-8"?>
<!-- Generator: Adobe Illustrator 14.0.0, SVG Export Plug-In . SVG Version: 6.00 Build 43363)  -->
<!DOCTYPE svg PUBLIC "-//W3C//DTD SVG 1.1//EN" "http://www.w3.org/Graphics/SVG/1.1/DTD/svg11.dtd">
<svg version="1.1" id="_x31_" xmlns="http://www.w3.org/2000/svg" xmlns:xlink="http://www.w3.org/1999/xlink" x="0px" y="0px"
	 width="1000px" height="1000px" viewBox="0 0 1000 1000" enable-background="new 0 0 1000 1000" xml:space="preserve">
<path fill-rule="evenodd" clip-rule="evenodd" fill="#4A7FB5" d="M500,75.93c79.13,0,154.924,23.482,203.203,89.618
	c64.142,87.864,55.021,216.423,24.137,314.965c-13.739,43.837-33.023,86.761-57.466,125.687
	c-8.198,13.056-20.703,35.464-20.871,51.157c-0.29,27.101,5.601,52.601,25.285,72.283c28.187,28.186,84.887,50.202,122.264,63.657
	C860.003,816.14,948.746,848.479,1000,893.688c0,17.133,0,34.267,0,51.4c-69.776-57.998-128.502-82.298-216.998-114.159
	c-43.917-15.811-103.843-39.854-136.995-73.006c-27.497-27.496-37.407-62.896-36.998-100.996
	c0.264-24.541,14.152-51.548,26.995-71.999C739.523,420.082,770.822,115.926,500,115.926
	c-270.823,0-239.523,304.155-136.004,469.002c12.843,20.451,26.731,47.458,26.995,71.999c0.409,38.101-9.501,73.5-36.998,100.996
	c-33.153,33.151-93.078,57.195-136.995,73.006C130.779,861.971,70.574,886.43,0,945.089c0-17.134,0-34.268,0-51.4
	c49.662-43.803,141.13-77.957,203.448-100.392c37.377-13.455,94.078-35.472,122.264-63.657
	c19.685-19.683,25.575-45.183,25.285-72.283c-0.168-15.693-12.674-38.102-20.872-51.157c-24.442-38.926-43.727-81.85-57.465-125.687
	c-30.884-98.542-40.005-227.101,24.136-314.965C345.076,99.413,420.87,75.93,500,75.93z"/>
</svg>
