<svg xmlns="http://www.w3.org/2000/svg" viewBox="0 0 1000 1000">
    <path d="M918.4 149.5h-349c-14.1 0-26.2 12.1-26.2 26.2v118.9c0 15.9 13.5 25 22 33.6 11.4 11.4 78.7 77.4 83 83.8L483.4 577.6c-22 22-28.4 31.1-2.3 57.1l69.5 69.5c14.4 14.3 11.2 8.3 11.2 35.1 0 14.8-1.4 82.8 1.2 91.4 3.4 10.9 12.8 19.8 26.5 19.8h328.9c13 0 26.2-11.3 26.2-23.2V172.7c.1-10.2-10.7-23.2-26.2-23.2M597.3 282.3v-78.7h294.9v592.9H615.8v-89.6c0-19.4-20.8-34-39.8-52.9l-46.7-47.5c7.2-4.8 146.7-145.9 164.1-163.3 14.1-14.1 19.7-16.4 19.7-34.4 0-12.5-18.4-26.9-25.9-34.4l-75.7-75.7c-3.3-3.2-14.2-11.7-14.2-16.4z"/>
    <path d="M391.9 149.5H81.6c-15.5 0-26.2 13-26.2 23.2v654.7c0 11.9 13.3 23.2 26.2 23.2h328.9c19.2 0 27.8-14.2 27.8-34v-105c0-18.7-5.5-23.3-15.1-32.8l-71.4-72.2 176.3-175.7c9.4-12.5 10.3-25.3-.6-37l-9.2-9.4c-1.5-1.4-1.7-1.6-3.1-3.1l-55.5-55.7c-.2-.2-.5-.6-.8-.8-.2-.2-.6-.5-.8-.8-2.5-2.5-3.7-3.6-6.2-6.2l-24.7-24.7c-5.4-5.1-9-7.1-9.2-17.1-.7-31.2 1.6-73.6.2-102.1-.6-14-11.6-24.5-26.3-24.5m-26.2 54v95.7c0 13.5 39.3 47.8 49.8 58.3l53.7 54.4c-1.4 5.3-39 41.4-45.9 48.3L305.8 577.6c-10.8 10.8-18.9 14-18.9 32 0 13.4 36.5 45 46.7 55.2 6.5 6.5 50.6 48 50.6 52.9v78.7H107.8V203.5h257.9z"/>
</svg>
