<?xml version="1.0" encoding="utf-8"?>
<!-- Generator: Adobe Illustrator 14.0.0, SVG Export Plug-In . SVG Version: 6.00 Build 43363)  -->
<!DOCTYPE svg PUBLIC "-//W3C//DTD SVG 1.1//EN" "http://www.w3.org/Graphics/SVG/1.1/DTD/svg11.dtd">
<svg version="1.1" id="Layer_1" xmlns="http://www.w3.org/2000/svg" xmlns:xlink="http://www.w3.org/1999/xlink" x="0px" y="0px"
	 width="1000px" height="1000px" viewBox="0 0 1000 1000" enable-background="new 0 0 1000 1000" xml:space="preserve">
<g>
	<path fill="#4A7FB5" d="M145.393,352.999L7.035,838.128c0,0-39.809,86.677,77.083,86.677h651.133h0.24h14.526
		c41.713,0,92.498,0,105.19-66.433L995.09,367.681c1.985-5.901,4.606-15.88,4.393-26.858c0.211-8.823-1.394-16.401-5.492-22.858
		c-8.9-17.034-30.521-31.397-78.103-31.397h-87.306h-62.473H612.705l33.77-110.237c21.188-6.454,36.604-23.528,36.604-49.449
		s-23.137-51.685-51.682-51.685s-51.686,31.253-51.686,51.685c0,20.432,4.309,23.621,11.498,32.502l-38.962,127.185H250.583
		C208.87,286.566,158.089,286.566,145.393,352.999z"/>
	<path fill="#FFFFFF" d="M408.282,856.257l-55.916-191.499c66.369-19.607,104.053-60.13,125.271-134.636l7.447-26.146
		c30.344-106.531-13.86-150.978-135.426-150.978H222.865L79.529,856.257h90.195l50.446-177.119h33.332l49.552,177.119H408.282
		L408.282,856.257z M243.156,596.133l45.606-160.128h38.563c69.934,0,75.275,24.836,61.687,72.547l-4.84,16.994
		c-13.586,47.712-38.403,70.587-103.761,70.587H243.156z"/>
	<path fill="#FFFFFF" d="M894.091,443.727l-17.881,64.825h-83.072c13.961-49.02,10.016-76.467-59.915-76.467
		c-65.357,0-85.597,27.447-99.186,75.158l-55.658,195.422c-13.59,47.712-8.987,75.162,56.371,75.162
		c65.357,0,89.515-27.45,103.664-77.123h84.792l-14.446,52.374c-36.301,72.946-98.128,104.487-196.721,104.487
		c-119.607,0-154.757-46.406-125.16-150.324l58.265-204.573c30.344-106.532,89.223-150.321,210.786-150.321
		C850.459,352.347,894.248,379.229,894.091,443.727z"/>
</g>
</svg>
