<?xml version="1.0" encoding="utf-8"?>
<!-- Generator: Adobe Illustrator 14.0.0, SVG Export Plug-In . SVG Version: 6.00 Build 43363)  -->
<!DOCTYPE svg PUBLIC "-//W3C//DTD SVG 1.1//EN" "http://www.w3.org/Graphics/SVG/1.1/DTD/svg11.dtd">
<svg version="1.1" id="Layer_1" xmlns="http://www.w3.org/2000/svg" xmlns:xlink="http://www.w3.org/1999/xlink" x="0px" y="0px"
	 width="1000px" height="210px" viewBox="0 0 1000 210" enable-background="new 0 0 1000 210" xml:space="preserve">
<g>
	<path fill-rule="evenodd" clip-rule="evenodd" fill="#D1D8E0" d="M22.838,75.678v101.314h-1.083v0.001
		c0,5.454-4.423,9.877-9.878,9.877c-5.455,0-9.877-4.423-9.877-9.877v-0.001V43.396c0-4.997,5.033-9.048,9.047-9.048
		c4.015,0,5.717,1.492,7.359,3.783l0.937-0.301l80.453,111.077V43.969h0.081c0-5.456,4.423-9.878,9.877-9.878
		c5.456,0,9.878,4.422,9.878,9.878h1.002v129.068l-0.003,0.001l0.003,0.293c0,7.476-6.063,13.539-13.542,13.539
		c-5.332,0-9.943-3.084-12.151-7.564L22.838,75.678z"/>
	<path fill-rule="evenodd" clip-rule="evenodd" fill="#D1D8E0" d="M187.063,76.697c7.565,0,14.648,1.41,21.25,4.229
		c6.602,2.819,12.379,6.705,17.331,11.657s8.837,10.729,11.657,17.33c2.82,6.603,4.229,13.686,4.229,21.251
		s-1.41,14.648-4.229,21.25c-2.819,6.603-6.705,12.38-11.657,17.331c-4.952,4.952-10.729,8.837-17.331,11.656
		c-6.602,2.82-13.686,4.23-21.25,4.23s-14.648-1.41-21.25-4.23c-6.602-2.819-12.379-6.704-17.331-11.656
		c-4.952-4.951-8.837-10.729-11.657-17.331c-2.82-6.602-4.229-13.685-4.229-21.25s1.41-14.648,4.229-21.251
		c2.82-6.602,6.705-12.378,11.657-17.33s10.729-8.837,17.331-11.657C172.414,78.106,179.498,76.697,187.063,76.697L187.063,76.697z
		 M187.166,164.381c4.539,0,8.803-0.859,12.86-2.579c4.023-1.719,7.565-4.092,10.591-7.117c3.026-3.026,5.364-6.568,7.083-10.626
		c1.72-4.058,2.579-8.355,2.579-12.895s-0.859-8.837-2.579-12.895c-1.719-4.058-4.058-7.6-7.083-10.625
		c-3.026-3.026-6.567-5.399-10.591-7.118c-4.058-1.72-8.321-2.579-12.86-2.579s-8.803,0.859-12.86,2.579
		c-4.023,1.719-7.565,4.092-10.591,7.118c-3.026,3.025-5.398,6.567-7.187,10.625s-2.682,8.355-2.682,12.895
		s0.894,8.837,2.682,12.895s4.161,7.6,7.187,10.626c3.026,3.025,6.568,5.398,10.591,7.117
		C178.363,163.521,182.626,164.381,187.166,164.381z"/>
	<path fill-rule="evenodd" clip-rule="evenodd" fill="#D1D8E0" d="M362.431,131.369c0,7.565-1.41,14.649-4.229,21.252
		c-2.82,6.602-6.706,12.379-11.657,17.331c-4.952,4.951-10.729,8.837-17.331,11.657c-6.603,2.818-13.687,4.229-21.251,4.229
		s-14.648-1.41-21.25-4.229c-6.603-2.82-12.38-6.706-17.331-11.657c-4.951-4.952-8.837-10.729-11.657-17.331
		c-2.82-6.603-4.229-13.687-4.229-21.252c0-7.564,1.41-14.648,4.229-21.25c2.82-6.603,6.706-12.38,11.657-17.331
		c4.951-4.953,10.729-8.838,17.331-11.657c6.603-2.82,13.686-4.23,21.25-4.23c6.327,0,12.276,0.998,17.847,2.992
		c5.571,1.995,10.694,4.779,15.372,8.356V13.949v-0.001c0.001-5.869,4.757-10.625,10.624-10.625c5.869,0,10.625,4.757,10.626,10.625
		v0.001v117.214V131.369L362.431,131.369z M308.066,164.588c4.539,0,8.803-0.86,12.86-2.58c4.023-1.72,7.565-4.092,10.592-7.118
		c3.026-3.025,5.363-6.567,7.083-10.625c1.719-4.058,2.58-8.356,2.58-12.896v-0.206c0-4.539-0.86-8.803-2.58-12.792
		c-1.72-3.988-4.057-7.496-7.083-10.522c-3.027-3.025-6.568-5.398-10.592-7.118c-4.057-1.72-8.321-2.579-12.86-2.579
		c-4.54,0-8.803,0.859-12.861,2.579c-4.023,1.719-7.564,4.092-10.591,7.118c-3.026,3.026-5.399,6.568-7.187,10.626
		s-2.682,8.356-2.682,12.895c0,4.539,0.895,8.838,2.682,12.896s4.161,7.6,7.187,10.625c3.027,3.026,6.568,5.398,10.591,7.118
		C299.263,163.728,303.526,164.588,308.066,164.588z"/>
	<path fill-rule="evenodd" clip-rule="evenodd" fill="#D1D8E0" d="M437.731,138.385h-41.469c0.825,3.714,2.235,7.188,4.229,10.419
		c1.995,3.232,4.436,6.018,7.324,8.356c2.889,2.338,6.121,4.16,9.697,5.467s7.358,1.96,11.347,1.96
		c4.814,0,9.319-0.963,13.514-2.888c4.195-1.926,7.875-4.608,11.038-8.047h3.92h21.044c-0.825,2.063-1.822,4.023-2.991,5.88
		c-1.169,1.857-2.441,3.68-3.817,5.468c-4.952,6.327-11.141,11.382-18.568,15.164c-7.428,3.782-15.474,5.674-24.139,5.674
		c-7.565,0-14.648-1.41-21.25-4.229s-12.379-6.705-17.331-11.657c-4.952-4.951-8.837-10.729-11.657-17.33
		c-2.82-6.603-4.229-13.686-4.229-21.251c0-7.564,1.41-14.648,4.229-21.25c2.82-6.603,6.705-12.379,11.657-17.331
		c4.952-4.952,10.729-8.837,17.331-11.657c6.602-2.819,13.686-4.229,21.25-4.229c8.666,0,16.711,1.892,24.139,5.674
		c7.427,3.783,13.617,8.906,18.568,15.371c4.539,5.502,7.84,11.966,9.903,19.394c1.238,4.401,1.856,9.078,1.856,14.029
		c0,2.476-0.206,4.814-0.619,7.015h-21.457H437.731L437.731,138.385z M428.859,98.154c-6.74,0-12.757,1.719-18.053,5.192
		c-5.295,3.474-9.318,8.081-12.069,13.789h48.071h12.173c-0.688-1.101-1.341-2.167-1.96-3.267c-0.619-1.101-1.272-2.098-1.96-3.061
		c-3.164-3.954-7.015-7.049-11.554-9.284C438.969,99.289,434.086,98.154,428.859,98.154z"/>
	<path fill-rule="evenodd" clip-rule="evenodd" fill="#D1D8E0" d="M549.758,164.381c5.364,0,10.316-1.169,14.854-3.507
		c4.539-2.339,8.321-5.434,11.348-9.285l16.712,12.998c-4.952,6.396-11.142,11.485-18.568,15.302
		c-7.428,3.817-15.543,5.743-24.346,5.743c-7.428,0-14.442-1.41-21.044-4.23c-6.603-2.819-12.413-6.704-17.399-11.656
		c-4.986-4.951-8.906-10.729-11.76-17.331c-2.854-6.602-4.264-13.685-4.264-21.25c0-7.428,1.41-14.442,4.264-21.044
		c2.854-6.603,6.774-12.379,11.76-17.331c4.986-4.952,10.797-8.837,17.399-11.657c6.602-2.819,13.616-4.229,21.044-4.229
		c8.803,0,16.918,1.892,24.346,5.64c7.427,3.748,13.616,8.872,18.568,15.405l-16.712,12.998c-3.026-3.989-6.809-7.118-11.348-9.388
		c-4.538-2.269-9.49-3.404-14.854-3.404c-4.539,0-8.837,0.859-12.895,2.579c-4.058,1.685-7.6,4.058-10.625,7.049
		c-3.026,3.026-5.399,6.533-7.118,10.557c-1.72,4.058-2.579,8.321-2.579,12.826s0.859,8.769,2.579,12.826
		c1.719,4.022,4.092,7.53,7.118,10.557c3.025,2.991,6.567,5.398,10.625,7.152C540.921,163.487,545.219,164.381,549.758,164.381z"/>
	<path fill-rule="evenodd" clip-rule="evenodd" fill="#D1D8E0" d="M651.605,76.901c7.565,0,14.649,1.444,21.32,4.333
		c6.637,2.888,12.482,6.808,17.503,11.76c5.021,4.952,8.94,10.798,11.829,17.537c2.888,6.74,4.332,13.892,4.332,21.457v53.438
		h-21.25v-10.007c-4.678,3.542-9.836,6.327-15.475,8.39c-5.64,2.029-11.691,3.062-18.156,3.062c-7.565,0-14.683-1.444-21.354-4.333
		c-6.671-2.889-12.482-6.809-17.434-11.76c-4.951-4.952-8.871-10.764-11.761-17.436c-2.888-6.67-4.332-13.788-4.332-21.354
		s1.444-14.717,4.332-21.457c2.89-6.739,6.774-12.585,11.727-17.537c4.951-4.952,10.763-8.872,17.399-11.76
		C636.957,78.345,644.041,76.901,651.605,76.901L651.605,76.901z M651.709,165.618c4.677,0,9.044-0.894,13.102-2.682
		c4.057-1.822,7.6-4.229,10.625-7.29c3.026-3.025,5.433-6.603,7.222-10.694c1.788-4.058,2.683-8.391,2.683-12.964
		c0-4.711-0.895-9.112-2.683-13.17c-1.789-4.092-4.195-7.668-7.222-10.694c-3.025-3.06-6.568-5.467-10.625-7.29
		c-4.058-1.789-8.425-2.682-13.102-2.682s-9.044,0.894-13.101,2.682c-4.059,1.822-7.601,4.23-10.626,7.29
		c-3.026,3.026-5.434,6.603-7.221,10.694c-1.789,4.058-2.683,8.459-2.683,13.17c0,4.573,0.894,8.906,2.683,12.964
		c1.787,4.092,4.194,7.669,7.221,10.694c3.025,3.061,6.567,5.468,10.626,7.29C642.665,164.725,647.032,165.618,651.709,165.618z"/>
	<path fill-rule="evenodd" clip-rule="evenodd" fill="#D1D8E0" d="M772.465,141.134c0.946,0.455,1.809,0.971,2.601,1.533
		c-0.714,5.453-2.262,13.818-5.432,19.308c-5.038,8.729-16.904,12.829-16.904,12.829c34.418,0,45.149-19.806,48.078-27.796
		c0.321,0.003,0.649,0.016,0.983,0.043h14.907c0.511-6.354,1.982-12.544,4.51-18.463c0.402-0.942,0.826-1.872,1.271-2.789h-25.056
		c-4.539,0-8.803-0.859-12.861-2.578c-4.022-1.72-7.564-4.093-10.591-7.118c-3.026-3.026-5.398-6.568-7.187-10.625
		c-1.788-4.058-2.682-8.356-2.682-12.896c0-4.54,0.894-8.837,2.682-12.896c1.788-4.057,4.16-7.6,7.187-10.625
		c3.026-3.026,6.568-5.399,10.591-7.118c4.059-1.72,8.322-2.579,12.861-2.579h66.538c4.539,0,8.803,0.859,12.859,2.579
		c4.024,1.719,7.565,4.092,10.593,7.118c3.025,3.025,5.363,6.568,7.083,10.625c1.608,3.796,2.465,7.804,2.568,12.021h21.254
		c-0.104-7.238-1.511-14.03-4.222-20.377c-2.819-6.602-6.706-12.379-11.657-17.33c-4.952-4.952-10.729-8.838-17.331-11.657
		c-6.603-2.82-13.687-4.23-21.251-4.23h-66.435h-0.104c-7.565,0-14.647,1.41-21.25,4.23c-6.603,2.819-12.38,6.705-17.331,11.657
		c-4.952,4.951-8.838,10.729-11.657,17.33c-2.82,6.603-4.23,13.686-4.23,21.251c0,7.565,1.41,14.648,4.23,21.251
		c2.819,6.602,6.705,12.379,11.657,17.33C762.767,135.193,767.343,138.517,772.465,141.134z"/>
	<path fill-rule="evenodd" clip-rule="evenodd" fill="#D1D8E0" d="M876.994,97.74h0.103h59.594c0.651-0.408,1.28-0.773,1.888-1.103
		c1.789-6.083,11.144-29.661,48.696-29.661c0,0-11.865,4.102-16.904,12.83c-3.203,5.548-4.751,14.034-5.454,19.483
		c2.775,2.57,5.127,5.249,5.127,5.249l0,0c4.457,2.469,8.48,5.499,12.07,9.088c4.952,4.951,8.838,10.729,11.657,17.33
		c2.819,6.603,4.229,13.687,4.229,21.252c0,7.564-1.41,14.648-4.229,21.251c-2.819,6.602-6.705,12.379-11.657,17.33
		c-4.952,4.952-10.729,8.838-17.331,11.657c-6.602,2.82-13.686,4.229-21.251,4.229h-66.435h-0.103
		c-7.565,0-14.648-1.409-21.251-4.229c-6.603-2.819-12.38-6.705-17.331-11.657c-4.951-4.951-8.838-10.729-11.657-17.33
		c-2.819-6.603-4.229-13.687-4.229-21.251c0-7.565,1.41-14.649,4.229-21.252c2.819-6.602,6.706-12.379,11.657-17.33
		c4.951-4.952,10.729-8.837,17.331-11.657C862.346,99.15,869.429,97.74,876.994,97.74L876.994,97.74z M943.635,185.426
		c4.539,0,8.804-0.859,12.86-2.578c4.023-1.72,7.565-4.093,10.592-7.118c3.026-3.026,5.363-6.568,7.083-10.626
		s2.579-8.355,2.579-12.895c0-4.54-0.859-8.838-2.579-12.896s-4.057-7.6-7.083-10.625c-3.026-3.026-6.568-5.398-10.592-7.118
		c-4.057-1.72-8.321-2.579-12.86-2.579h-66.538c-4.539,0-8.803,0.859-12.861,2.579c-4.022,1.72-7.563,4.092-10.591,7.118
		c-3.025,3.025-5.398,6.567-7.186,10.625c-1.788,4.058-2.683,8.355-2.683,12.896c0,4.539,0.895,8.837,2.683,12.895
		c1.787,4.058,4.16,7.6,7.186,10.626c3.027,3.025,6.568,5.398,10.591,7.118c4.059,1.719,8.322,2.578,12.861,2.578H943.635z"/>
</g>
</svg>
