<?xml version="1.0" encoding="UTF-8" standalone="no"?>
<!-- Generator: Adobe Illustrator 14.0.0, SVG Export Plug-In . SVG Version: 6.00 Build 43363)  -->

<svg
   xmlns:dc="http://purl.org/dc/elements/1.1/"
   xmlns:cc="http://creativecommons.org/ns#"
   xmlns:rdf="http://www.w3.org/1999/02/22-rdf-syntax-ns#"
   xmlns:svg="http://www.w3.org/2000/svg"
   xmlns="http://www.w3.org/2000/svg"
   xmlns:sodipodi="http://sodipodi.sourceforge.net/DTD/sodipodi-0.dtd"
   xmlns:inkscape="http://www.inkscape.org/namespaces/inkscape"
   version="1.1"
   id="_x31_"
   x="0px"
   y="0px"
   width="4516px"
   height="1000px"
   viewBox="0 0 4516 1000"
   enable-background="new 0 0 4516 1000"
   xml:space="preserve"
   inkscape:version="0.48.4 r9939"
   sodipodi:docname="rcopen_logo-circle.svg"><metadata
     id="metadata25"><rdf:RDF><cc:Work
         rdf:about=""><dc:format>image/svg+xml</dc:format><dc:type
           rdf:resource="http://purl.org/dc/dcmitype/StillImage" /></cc:Work></rdf:RDF></metadata><defs
     id="defs23" /><sodipodi:namedview
     pagecolor="#ffffff"
     bordercolor="#666666"
     borderopacity="1"
     objecttolerance="10"
     gridtolerance="10"
     guidetolerance="10"
     inkscape:pageopacity="0"
     inkscape:pageshadow="2"
     inkscape:window-width="2056"
     inkscape:window-height="1180"
     id="namedview21"
     showgrid="false"
     inkscape:zoom="0.35355339"
     inkscape:cx="1432.0993"
     inkscape:cy="500"
     inkscape:window-x="132"
     inkscape:window-y="60"
     inkscape:window-maximized="0"
     inkscape:current-layer="_x31_" /><path
     style="fill:#4a7fb5;fill-rule:evenodd"
     inkscape:connector-curvature="0"
     id="path5"
     d="m 1629.326,811.301 c -18.137,0 -26.794,-12.761 -40.318,-29.436 L 1460.445,623.489 c -6.971,-8.589 -12.016,-15.254 -22.891,-15.254 h -97.442 c -7.242,0 -10.901,3.645 -10.901,10.881 v 159.48 c 0,10.161 -2.894,18.168 -8.714,23.979 -5.81,5.81 -13.801,8.726 -23.962,8.726 h -38.138 c -10.173,0 -18.158,-2.916 -23.968,-8.726 -5.82,-5.811 -8.725,-13.795 -8.725,-23.979 V 221.392 c 0,-10.152 2.905,-18.117 8.725,-23.947 5.81,-5.831 13.795,-8.746 23.968,-8.746 h 223.371 c 29.06,0 56.292,5.309 81.721,15.826 25.426,10.516 47.389,25.041 65.921,43.572 18.512,18.533 33.047,40.502 43.579,65.906 10.532,25.457 15.794,52.682 15.794,81.731 0,41.386 -9.818,78.087 -29.601,110.051 -19.792,31.964 -44.879,56.224 -75.006,72.985 -11.635,6.508 -17.627,19.263 -7.616,31.6 l 130.75,161.698 c 7.564,9.345 5.435,20.162 1.083,27.779 -4.346,7.621 -11.978,11.453 -22.875,11.453 h -56.192 l 0,0.001 0,0 z m 600.811,-119.875 c 7.256,7.288 10.542,15.252 9.812,23.998 -0.723,8.693 -4.008,15.982 -9.812,21.761 -23.219,23.265 -50.48,43.239 -81.717,59.95 -31.235,16.695 -71.549,25.045 -120.952,25.045 -35.587,0 -68.639,-6.345 -99.14,-19.053 -30.511,-12.724 -56.853,-30.522 -79.003,-53.392 -22.141,-22.911 -39.601,-50.501 -52.298,-82.829 -12.717,-32.328 -19.078,-67.728 -19.078,-106.2 V 450.239 c 0,-37.794 6.366,-72.829 19.078,-105.157 12.708,-32.328 30.158,-59.92 52.298,-82.826 22.15,-22.853 48.493,-40.865 79.003,-53.932 30.501,-13.067 63.553,-19.626 99.14,-19.626 23.967,0 45.775,2.394 65.386,7.132 19.604,4.685 37.403,10.671 53.39,17.96 15.972,7.236 29.975,15.409 41.928,24.52 11.989,9.058 21.994,17.596 29.975,25.612 15.274,15.253 15.274,30.506 0,45.76 l -25.05,25.04 c -7.251,7.236 -14.165,11.088 -20.693,11.453 -6.57,0.365 -14.186,-3.436 -22.895,-11.453 -9.444,-8.694 -23.796,-18.897 -43.032,-30.506 -19.256,-11.609 -45.598,-17.44 -79.009,-17.44 -23.249,0 -43.75,4.166 -61.559,12.546 -17.788,8.329 -33.051,19.939 -45.759,34.879 -12.708,14.889 -22.333,32.276 -28.883,52.267 -6.522,19.99 -9.808,41.23 -9.808,63.771 v 110.467 c 0,48.623 12.911,88.084 38.69,118.226 25.784,30.09 61.563,45.186 107.318,45.186 31.963,0 59.023,-5.986 81.18,-17.959 22.155,-11.974 40.136,-24.156 53.942,-36.493 6.528,-5.831 13.973,-9.11 22.338,-9.839 8.361,-0.729 16.148,2.55 23.405,9.839 l 21.805,21.76 0,0 0,0 z m 498.884,38.158 c 22.494,0 43.38,-4.373 62.626,-13.067 19.241,-8.745 35.968,-20.354 50.132,-34.878 14.171,-14.524 25.244,-31.809 33.225,-51.746 7.98,-19.991 11.988,-41.23 11.988,-63.771 0,-22.489 -4.008,-43.729 -11.988,-63.719 -7.98,-19.991 -19.054,-37.222 -33.225,-51.747 -14.164,-14.525 -30.891,-26.186 -50.132,-34.879 -19.246,-8.746 -40.132,-13.066 -62.626,-13.066 -22.525,0 -43.416,4.321 -62.662,13.066 -19.241,8.694 -35.968,20.354 -50.139,34.879 -14.165,14.524 -25.236,31.755 -33.217,51.747 -7.98,19.989 -11.99,41.229 -11.99,63.719 0,22.541 4.01,43.78 11.99,63.771 7.98,19.938 19.052,37.222 33.217,51.746 14.171,14.523 30.897,26.133 50.139,34.878 19.246,8.694 40.137,13.067 62.662,13.067 l 0,0 0,0 z m 0,92.596 c -35.624,0 -68.848,-6.716 -99.702,-20.156 -30.892,-13.432 -57.926,-31.776 -81.181,-55 -23.254,-23.27 -41.583,-50.341 -55.024,-81.211 -13.437,-30.871 -20.157,-64.084 -20.157,-99.691 0,-35.608 6.721,-68.822 20.157,-99.691 13.441,-30.872 31.771,-57.941 55.024,-81.16 23.255,-23.27 50.289,-41.594 81.181,-55.025 30.854,-13.431 64.078,-20.146 99.702,-20.146 35.587,0 68.811,6.715 99.66,20.146 30.891,13.431 57.967,31.755 81.185,55.025 23.255,23.218 41.579,50.288 55.062,81.16 13.442,30.87 20.163,64.083 20.163,99.691 0,35.607 -6.721,68.82 -20.163,99.691 -13.482,30.87 -31.807,57.941 -55.062,81.211 -23.218,23.224 -50.294,41.568 -81.185,55 -30.849,13.44 -64.073,20.156 -99.66,20.156 l 0,0 0,0 z m 670.105,-315.978 c 0,-27.591 -9.09,-49.925 -27.227,-67 -18.174,-17.075 -39.98,-25.613 -65.411,-25.613 H 3202.97 c -7.258,0 -10.881,3.645 -10.881,10.88 V 707.77 c 0,7.288 3.623,10.88 10.881,10.88 h 103.518 c 27.606,0 49.945,-8.537 67.014,-25.56 17.071,-17.076 25.624,-39.461 25.624,-67.052 V 506.202 l 0,0 z m -272.411,493.799 c -10.156,0 -18.173,-2.91 -23.978,-8.726 -5.804,-5.804 -8.704,-13.815 -8.704,-23.973 v -613.63 c 0,-10.204 2.9,-18.169 8.704,-23.999 5.805,-5.779 13.821,-8.694 23.978,-8.694 h 179.773 c 28.334,0 54.301,4.736 77.937,14.16 23.598,9.422 43.759,22.333 60.444,38.679 16.727,16.346 29.595,35.972 38.686,58.826 9.083,22.906 13.628,47.425 13.628,73.559 V 626.04 c 0,26.186 -4.731,50.705 -14.165,73.559 -9.434,22.905 -22.339,42.479 -38.68,58.842 -16.346,16.356 -35.972,29.251 -58.846,38.694 -22.87,9.443 -47.77,14.166 -74.646,14.166 h -107.875 c -7.216,0 -10.881,3.648 -10.881,10.879 v 145.123 c 0,10.142 -2.905,18.179 -8.709,23.973 -5.805,5.794 -13.822,8.726 -23.979,8.726 h -32.687 l 0,-10e-4 0,0 z m 844.406,-295.457 c 6.56,6.507 9.631,13.743 9.267,21.76 -0.364,8.018 -3.436,15.618 -9.267,22.896 -14.472,18.147 -35.92,34.857 -64.239,50.11 -28.319,15.248 -62.158,22.869 -101.358,22.869 -30.506,0 -57.94,-4.903 -82.251,-14.695 -24.312,-9.813 -45.239,-23.427 -62.679,-40.861 -17.439,-17.423 -30.871,-37.768 -40.293,-61.038 -9.423,-23.218 -14.16,-47.945 -14.16,-74.079 V 502.923 c 0,-26.134 4.165,-51.018 12.494,-74.652 8.381,-23.582 20.719,-44.094 37.065,-61.533 16.347,-17.438 36.336,-31.235 59.919,-41.386 23.635,-10.204 50.704,-15.253 81.211,-15.253 30.506,0 57.732,5.049 81.732,15.253 23.946,10.151 44.457,23.947 61.531,41.386 17.076,17.439 30.143,37.951 39.253,61.533 9.059,23.634 13.587,48.519 13.587,74.652 v 65.384 c 0,10.152 -2.915,18.17 -8.693,23.947 -5.831,5.831 -13.848,8.746 -24,8.746 H 3715.1 c -7.289,0 -10.933,3.645 -10.933,10.88 v 19.626 c 0,27.591 8.173,50.861 24.519,69.759 16.346,18.845 41.959,28.319 76.838,28.319 27.592,0 49.039,-4.895 64.293,-14.732 15.253,-9.786 26.861,-19.053 34.879,-27.799 7.965,-7.965 15.981,-11.766 23.946,-11.4 8.017,0.363 15.253,3.8 21.813,10.308 l 20.666,18.583 0,0 0,0 z m -76.265,-201.621 c 0,-27.592 -7.601,-51.226 -22.905,-70.8 -15.202,-19.626 -40.294,-29.413 -75.121,-29.413 -34.15,0 -58.148,9.787 -71.943,29.413 -13.797,19.574 -20.72,43.208 -20.72,70.8 v 5.466 c 0,7.288 3.644,10.88 10.933,10.88 h 168.877 c 7.287,0 10.88,-3.592 10.88,-10.88 v -5.466 l -10e-4,0 z m 555.722,308.378 c -10.203,0 -18.168,-2.916 -24,-8.726 -5.777,-5.811 -8.692,-13.795 -8.692,-23.979 V 506.202 c 0,-27.591 -8.538,-51.746 -25.612,-72.465 -17.076,-20.667 -43.053,-31.027 -77.88,-31.027 -34.88,0 -60.856,10.359 -77.931,31.027 -17.076,20.719 -25.613,44.874 -25.613,72.465 v 272.395 c 0,10.184 -2.916,18.168 -8.693,23.979 -5.831,5.81 -13.848,8.726 -23.999,8.726 h -32.692 c -10.152,0 -18.168,-2.916 -23.947,-8.726 -5.83,-5.811 -8.693,-13.795 -8.693,-23.979 V 506.202 c 0,-26.133 4.841,-51.226 14.68,-75.172 9.787,-23.999 23.427,-44.875 40.866,-62.679 17.439,-17.751 38.471,-31.963 63.199,-42.479 24.675,-10.517 52.317,-15.773 82.824,-15.773 30.507,0 58.097,5.257 82.772,15.773 24.676,10.516 45.76,24.728 63.25,42.479 17.389,17.804 31.027,38.68 40.814,62.679 9.787,23.947 14.732,49.039 14.732,75.172 v 272.395 c 0,10.184 -2.914,18.168 -8.746,23.979 -5.83,5.81 -13.795,8.726 -23.946,8.726 h -32.693 l 0,-10e-4 0,0 z M 1475.229,510.158 c 14.523,0 28.511,-2.759 41.942,-8.173 13.426,-5.466 25.249,-13.274 35.421,-23.427 10.146,-10.15 18.345,-22.333 24.509,-36.493 6.174,-14.16 9.261,-29.621 9.261,-46.332 0,-16.711 -3.087,-31.756 -9.261,-45.187 -6.164,-13.483 -14.353,-24.885 -24.509,-34.359 -10.172,-9.422 -21.995,-16.711 -35.421,-21.76 -13.431,-5.102 -27.435,-7.653 -41.942,-7.653 h -134.02 c -7.257,0 -10.901,3.645 -10.901,10.88 v 201.57 c 0,7.288 3.64,10.932 10.901,10.932 h 134.02 l 0,0.002 z"
     clip-rule="evenodd" /><path
     style="fill:#4a80b5;fill-rule:evenodd"
     inkscape:connector-curvature="0"
     id="path7"
     d="M 566.419,477.956 C 530.694,401.666 461.315,344.283 377.391,324.913 c -4.246,-1.549 -8.779,-2.501 -13.498,-2.755 l -2.551,-0.458 v 0.386 c -25.824,0 -46.755,20.932 -46.755,46.755 0,21.937 15.106,40.342 35.484,45.386 v 0.003 l 11.271,2.789 c 66.75,17.403 118.784,71.225 133.617,138.979 0.242,1.574 0.566,3.12 0.959,4.639 l 0.068,0.34 V 560.9 h 0.003 c 5.322,19.979 23.529,34.695 45.181,34.695 21.652,0 39.863,-14.716 45.181,-34.695 3.378,-27.087 -8.719,-58.994 -19.932,-82.944 z"
     clip-rule="evenodd" /><path
     style="fill:#4a80b5;fill-rule:evenodd"
     inkscape:connector-curvature="0"
     id="path9"
     d="m 909.243,560.899 c -0.25,-4.354 -0.566,-8.692 -0.909,-13.019 -0.043,-2.171 -0.235,-4.311 -0.566,-6.397 C 882.027,256.158 655.172,28.904 370.02,2.607 367.209,2.078 364.309,1.8 361.343,1.8 c -25.824,0 -46.755,20.932 -46.755,46.755 0,25.823 20.932,46.755 46.755,46.755 v 0.368 c 244.018,22.502 437.449,219.589 454.256,465.221 h 0.81 c 5.319,19.979 23.529,34.695 45.182,34.695 21.653,0 39.862,-14.716 45.181,-34.695 h 2.471 z"
     clip-rule="evenodd" /><path
     style="fill:#4a80b5;fill-rule:evenodd"
     d="M 140.96875 628.28125 C 63.34175 628.28125 0.03125 691.59275 0.03125 769.21875 C 0.03125 846.84475 63.34175 910.15625 140.96875 910.15625 C 218.59575 910.15625 281.90625 846.84575 281.90625 769.21875 C 281.90625 691.59175 218.59575 628.28125 140.96875 628.28125 z M 140.96875 710.4375 C 173.34875 710.4375 199.78125 736.83875 199.78125 769.21875 C 199.78125 801.59975 173.34875 828 140.96875 828 C 108.58775 828 82.1875 801.59975 82.1875 769.21875 C 82.1875 736.83875 108.58875 710.4375 140.96875 710.4375 z "
     id="path13" /><path
     style="fill:#4a80b5;fill-rule:evenodd"
     inkscape:connector-curvature="0"
     id="path17"
     d="m 143.262,93.516 c -27.395,0.139 -49.574,22.318 -49.714,49.714 v 13.891 0.233 0.006 12.687 87.946 46.253 95.02 93.507 77.568 c -35.713,8.485 -67.8,26.333 -93.512,50.813 V 399.265 257.992 159.176 158.492 122.549 H 0.054 C 0.865,54.729 56.085,0 124.097,0 h 22.413 0.236 c 25.821,0 46.753,20.935 46.753,46.756 0,16.419 -8.467,30.858 -21.268,39.201 l 0.003,0.142 h -0.218 c -7.286,4.689 -15.962,7.413 -25.27,7.413 -0.294,0.016 -1.907,0.004 -3.484,0.004 z"
     clip-rule="evenodd" /><path
     style="fill:#4a80b5;fill-rule:evenodd"
     inkscape:connector-curvature="0"
     id="path19"
     d="m 816.674,766.927 c -0.14,27.396 -22.319,49.575 -49.714,49.714 h -13.891 -0.233 -0.006 -12.686 -87.946 -46.253 -95.02 -93.506 -77.568 c -8.485,35.714 -26.333,67.801 -50.813,93.513 h 221.887 141.273 98.816 0.685 35.943 v -0.019 C 855.461,909.324 910.19,854.104 910.19,786.092 v -22.412 -0.236 c 0,-25.821 -20.935,-46.754 -46.756,-46.754 -16.418,0 -30.858,8.467 -39.2,21.269 l -0.143,-0.003 v 0.218 c -4.689,7.286 -7.413,15.962 -7.413,25.271 -0.017,0.291 -0.004,1.906 -0.004,3.482 z"
     clip-rule="evenodd" /></svg>