<?xml version="1.0" encoding="UTF-8" standalone="no"?>
<!-- Generator: Adobe Illustrator 14.0.0, SVG Export Plug-In . SVG Version: 6.00 Build 43363)  -->

<svg
   xmlns:dc="http://purl.org/dc/elements/1.1/"
   xmlns:cc="http://creativecommons.org/ns#"
   xmlns:rdf="http://www.w3.org/1999/02/22-rdf-syntax-ns#"
   xmlns:svg="http://www.w3.org/2000/svg"
   xmlns="http://www.w3.org/2000/svg"
   xmlns:sodipodi="http://sodipodi.sourceforge.net/DTD/sodipodi-0.dtd"
   xmlns:inkscape="http://www.inkscape.org/namespaces/inkscape"
   version="1.1"
   id="_x31_"
   x="0px"
   y="0px"
   width="1000px"
   height="1000px"
   viewBox="0 0 1000 1000"
   enable-background="new 0 0 1000 1000"
   xml:space="preserve"
   inkscape:version="0.48.4 r9939"
   sodipodi:docname="rcopen_favicon-circle.svg"><metadata
     id="metadata23"><rdf:RDF><cc:Work
         rdf:about=""><dc:format>image/svg+xml</dc:format><dc:type
           rdf:resource="http://purl.org/dc/dcmitype/StillImage" /></cc:Work></rdf:RDF></metadata><defs
     id="defs21" /><sodipodi:namedview
     pagecolor="#ffffff"
     bordercolor="#666666"
     borderopacity="1"
     objecttolerance="10"
     gridtolerance="10"
     guidetolerance="10"
     inkscape:pageopacity="0"
     inkscape:pageshadow="2"
     inkscape:window-width="1861"
     inkscape:window-height="1286"
     id="namedview19"
     showgrid="false"
     inkscape:zoom="1"
     inkscape:cx="208"
     inkscape:cy="500"
     inkscape:window-x="132"
     inkscape:window-y="60"
     inkscape:window-maximized="0"
     inkscape:current-layer="_x31_" /><path
     style="fill:#4a80b5;fill-rule:evenodd"
     inkscape:connector-curvature="0"
     id="path5"
     d="M 622.295,525.138 C 583.043,441.318 506.816,378.269 414.607,356.987 c -4.665,-1.702 -9.646,-2.749 -14.831,-3.027 l -2.803,-0.503 v 0.425 c -28.373,0 -51.371,22.998 -51.371,51.371 0,24.102 16.597,44.324 38.986,49.866 v 0.003 l 12.384,3.064 c 73.339,19.122 130.509,78.255 146.808,152.699 0.265,1.729 0.621,3.429 1.053,5.097 l 0.075,0.374 v -0.086 h 0.003 c 5.848,21.952 25.852,38.121 49.642,38.121 23.789,0 43.798,-16.169 49.642,-38.121 3.71,-29.762 -9.581,-64.818 -21.9,-91.132 z"
     clip-rule="evenodd" /><path
     style="fill:#4a80b5;fill-rule:evenodd"
     inkscape:connector-curvature="0"
     id="path7"
     d="m 998.96,616.27 c -0.275,-4.784 -0.622,-9.551 -0.999,-14.304 -0.048,-2.386 -0.258,-4.736 -0.621,-7.03 C 969.059,281.445 719.809,31.757 406.507,2.864 c -3.088,-0.581 -6.275,-0.887 -9.533,-0.887 -28.373,0 -51.371,22.998 -51.371,51.371 0,28.373 22.998,51.371 51.371,51.371 v 0.405 C 665.081,129.848 877.606,346.39 896.072,616.27 h 0.891 c 5.844,21.951 25.852,38.12 49.641,38.12 23.79,0 43.798,-16.169 49.642,-38.12 h 2.714 z"
     clip-rule="evenodd" /><path
     style="fill:#4a80b5;fill-rule:evenodd"
     d="M 154.84375 690.28125 C 69.55375 690.28125 0 759.86625 0 845.15625 C 0 930.44625 69.55375 1000 154.84375 1000 C 240.13475 1000 309.71875 930.44725 309.71875 845.15625 C 309.71875 759.86525 240.13375 690.28125 154.84375 690.28125 z M 154.84375 780.5625 C 190.41975 780.5625 219.4375 809.57925 219.4375 845.15625 C 219.4375 880.73325 190.42075 909.75 154.84375 909.75 C 119.26675 909.75 90.25 880.73425 90.25 845.15625 C 90.25 809.57825 119.26775 780.5625 154.84375 780.5625 z "
     id="path11" /><path
     style="fill:#4a80b5;fill-rule:evenodd"
     inkscape:connector-curvature="0"
     id="path15"
     d="m 157.364,102.747 c -30.099,0.153 -54.468,24.521 -54.621,54.621 v 15.262 0.256 0.006 13.939 96.627 50.819 104.4 102.737 85.226 C 63.504,635.964 28.25,655.573 0,682.47 V 438.679 283.459 174.889 174.138 134.646 H 0.02 C 0.911,60.132 61.582,0 136.309,0 h 24.625 0.26 c 28.37,0 51.368,23.002 51.368,51.372 0,18.039 -9.302,33.904 -23.368,43.07 l 0.003,0.156 h -0.24 c -8.005,5.152 -17.537,8.146 -27.764,8.146 -0.323,0.016 -2.096,0.003 -3.829,0.003 z"
     clip-rule="evenodd" /><path
     style="fill:#4a80b5;fill-rule:evenodd"
     inkscape:connector-curvature="0"
     id="path17"
     d="m 897.253,842.635 c -0.153,30.1 -24.522,54.469 -54.621,54.621 h -15.263 -0.256 -0.007 -13.938 -96.628 -50.819 -104.4 -102.737 -85.226 C 364.036,936.495 344.426,971.75 317.53,1000 h 243.792 155.218 108.571 0.751 39.492 v -0.021 C 939.867,999.089 1000,938.417 1000,863.691 v -24.625 -0.26 c 0,-28.369 -23.002,-51.368 -51.372,-51.368 -18.04,0 -33.904,9.303 -43.07,23.367 l -0.156,-0.003 v 0.239 c -5.152,8.006 -8.146,17.538 -8.146,27.765 -0.017,0.324 -0.003,2.096 -0.003,3.829 z"
     clip-rule="evenodd" /></svg>