<?xml version="1.0" encoding="utf-8"?>
<!-- Generator: Adobe Illustrator 14.0.0, SVG Export Plug-In . SVG Version: 6.00 Build 43363)  -->
<!DOCTYPE svg PUBLIC "-//W3C//DTD SVG 1.1//EN" "http://www.w3.org/Graphics/SVG/1.1/DTD/svg11.dtd">
<svg version="1.1" id="_x31_" xmlns="http://www.w3.org/2000/svg" xmlns:xlink="http://www.w3.org/1999/xlink" x="0px" y="0px"
	 width="4516px" height="1000px" viewBox="0 0 4516 1000" enable-background="new 0 0 4516 1000" xml:space="preserve">
<g>
	<path fill-rule="evenodd" clip-rule="evenodd" fill="#4A7FB5" d="M1629.326,811.301c-18.137,0-26.794-12.761-40.318-29.436
		l-128.563-158.376c-6.971-8.589-12.016-15.254-22.891-15.254h-97.442c-7.242,0-10.901,3.645-10.901,10.881v159.48
		c0,10.161-2.894,18.168-8.714,23.979c-5.81,5.81-13.801,8.726-23.962,8.726h-38.138c-10.173,0-18.158-2.916-23.968-8.726
		c-5.82-5.811-8.725-13.795-8.725-23.979V221.392c0-10.152,2.905-18.117,8.725-23.947c5.81-5.831,13.795-8.746,23.968-8.746h223.371
		c29.06,0,56.292,5.309,81.721,15.826c25.426,10.516,47.389,25.041,65.921,43.572c18.512,18.533,33.047,40.502,43.579,65.906
		c10.532,25.457,15.794,52.682,15.794,81.731c0,41.386-9.818,78.087-29.601,110.051c-19.792,31.964-44.879,56.224-75.006,72.985
		c-11.635,6.508-17.627,19.263-7.616,31.6l130.75,161.698c7.564,9.345,5.435,20.162,1.083,27.779
		c-4.346,7.621-11.978,11.453-22.875,11.453H1629.326L1629.326,811.301L1629.326,811.301z M2230.137,691.426
		c7.256,7.288,10.542,15.252,9.812,23.998c-0.723,8.693-4.008,15.982-9.812,21.761c-23.219,23.265-50.48,43.239-81.717,59.95
		c-31.235,16.695-71.549,25.045-120.952,25.045c-35.587,0-68.639-6.345-99.14-19.053c-30.511-12.724-56.853-30.522-79.003-53.392
		c-22.141-22.911-39.601-50.501-52.298-82.829c-12.717-32.328-19.078-67.728-19.078-106.2V450.239
		c0-37.794,6.366-72.829,19.078-105.157c12.708-32.328,30.158-59.92,52.298-82.826c22.15-22.853,48.493-40.865,79.003-53.932
		c30.501-13.067,63.553-19.626,99.14-19.626c23.967,0,45.775,2.394,65.386,7.132c19.604,4.685,37.403,10.671,53.39,17.96
		c15.972,7.236,29.975,15.409,41.928,24.52c11.989,9.058,21.994,17.596,29.975,25.612c15.274,15.253,15.274,30.506,0,45.76
		l-25.05,25.04c-7.251,7.236-14.165,11.088-20.693,11.453c-6.57,0.365-14.186-3.436-22.895-11.453
		c-9.444-8.694-23.796-18.897-43.032-30.506c-19.256-11.609-45.598-17.44-79.009-17.44c-23.249,0-43.75,4.166-61.559,12.546
		c-17.788,8.329-33.051,19.939-45.759,34.879c-12.708,14.889-22.333,32.276-28.883,52.267c-6.522,19.99-9.808,41.23-9.808,63.771
		v110.467c0,48.623,12.911,88.084,38.69,118.226c25.784,30.09,61.563,45.186,107.318,45.186c31.963,0,59.023-5.986,81.18-17.959
		c22.155-11.974,40.136-24.156,53.942-36.493c6.528-5.831,13.973-9.11,22.338-9.839c8.361-0.729,16.148,2.55,23.405,9.839
		L2230.137,691.426L2230.137,691.426L2230.137,691.426z M2729.021,729.584c22.494,0,43.38-4.373,62.626-13.067
		c19.241-8.745,35.968-20.354,50.132-34.878c14.171-14.524,25.244-31.809,33.225-51.746c7.98-19.991,11.988-41.23,11.988-63.771
		c0-22.489-4.008-43.729-11.988-63.719c-7.98-19.991-19.054-37.222-33.225-51.747c-14.164-14.525-30.891-26.186-50.132-34.879
		c-19.246-8.746-40.132-13.066-62.626-13.066c-22.525,0-43.416,4.321-62.662,13.066c-19.241,8.694-35.968,20.354-50.139,34.879
		c-14.165,14.524-25.236,31.755-33.217,51.747c-7.98,19.989-11.99,41.229-11.99,63.719c0,22.541,4.01,43.78,11.99,63.771
		c7.98,19.938,19.052,37.222,33.217,51.746c14.171,14.523,30.897,26.133,50.139,34.878
		C2685.605,725.211,2706.496,729.584,2729.021,729.584L2729.021,729.584L2729.021,729.584z M2729.021,822.18
		c-35.624,0-68.848-6.716-99.702-20.156c-30.892-13.432-57.926-31.776-81.181-55c-23.254-23.27-41.583-50.341-55.024-81.211
		c-13.437-30.871-20.157-64.084-20.157-99.691c0-35.608,6.721-68.822,20.157-99.691c13.441-30.872,31.771-57.941,55.024-81.16
		c23.255-23.27,50.289-41.594,81.181-55.025c30.854-13.431,64.078-20.146,99.702-20.146c35.587,0,68.811,6.715,99.66,20.146
		c30.891,13.431,57.967,31.755,81.185,55.025c23.255,23.218,41.579,50.288,55.062,81.16c13.442,30.87,20.163,64.083,20.163,99.691
		c0,35.607-6.721,68.82-20.163,99.691c-13.482,30.87-31.807,57.941-55.062,81.211c-23.218,23.224-50.294,41.568-81.185,55
		C2797.832,815.464,2764.608,822.18,2729.021,822.18L2729.021,822.18L2729.021,822.18z M3399.126,506.202
		c0-27.591-9.09-49.925-27.227-67c-18.174-17.075-39.98-25.613-65.411-25.613h-103.518c-7.258,0-10.881,3.645-10.881,10.88v283.301
		c0,7.288,3.623,10.88,10.881,10.88h103.518c27.606,0,49.945-8.537,67.014-25.56c17.071-17.076,25.624-39.461,25.624-67.052V506.202
		L3399.126,506.202z M3126.715,1000.001c-10.156,0-18.173-2.91-23.978-8.726c-5.804-5.804-8.704-13.815-8.704-23.973V353.672
		c0-10.204,2.9-18.169,8.704-23.999c5.805-5.779,13.821-8.694,23.978-8.694h179.773c28.334,0,54.301,4.736,77.937,14.16
		c23.598,9.422,43.759,22.333,60.444,38.679c16.727,16.346,29.595,35.972,38.686,58.826c9.083,22.906,13.628,47.425,13.628,73.559
		V626.04c0,26.186-4.731,50.705-14.165,73.559c-9.434,22.905-22.339,42.479-38.68,58.842
		c-16.346,16.356-35.972,29.251-58.846,38.694c-22.87,9.443-47.77,14.166-74.646,14.166h-107.875
		c-7.216,0-10.881,3.648-10.881,10.879v145.123c0,10.142-2.905,18.179-8.709,23.973c-5.805,5.794-13.822,8.726-23.979,8.726
		H3126.715L3126.715,1000.001L3126.715,1000.001z M3971.121,704.544c6.56,6.507,9.631,13.743,9.267,21.76
		c-0.364,8.018-3.436,15.618-9.267,22.896c-14.472,18.147-35.92,34.857-64.239,50.11c-28.319,15.248-62.158,22.869-101.358,22.869
		c-30.506,0-57.94-4.903-82.251-14.695c-24.312-9.813-45.239-23.427-62.679-40.861c-17.439-17.423-30.871-37.768-40.293-61.038
		c-9.423-23.218-14.16-47.945-14.16-74.079V502.923c0-26.134,4.165-51.018,12.494-74.652c8.381-23.582,20.719-44.094,37.065-61.533
		c16.347-17.438,36.336-31.235,59.919-41.386c23.635-10.204,50.704-15.253,81.211-15.253c30.506,0,57.732,5.049,81.732,15.253
		c23.946,10.151,44.457,23.947,61.531,41.386c17.076,17.439,30.143,37.951,39.253,61.533c9.059,23.634,13.587,48.519,13.587,74.652
		v65.384c0,10.152-2.915,18.17-8.693,23.947c-5.831,5.831-13.848,8.746-24,8.746H3715.1c-7.289,0-10.933,3.645-10.933,10.88v19.626
		c0,27.591,8.173,50.861,24.519,69.759c16.346,18.845,41.959,28.319,76.838,28.319c27.592,0,49.039-4.895,64.293-14.732
		c15.253-9.786,26.861-19.053,34.879-27.799c7.965-7.965,15.981-11.766,23.946-11.4c8.017,0.363,15.253,3.8,21.813,10.308
		L3971.121,704.544L3971.121,704.544L3971.121,704.544z M3894.856,502.923c0-27.592-7.601-51.226-22.905-70.8
		c-15.202-19.626-40.294-29.413-75.121-29.413c-34.15,0-58.148,9.787-71.943,29.413c-13.797,19.574-20.72,43.208-20.72,70.8v5.466
		c0,7.288,3.644,10.88,10.933,10.88h168.877c7.287,0,10.88-3.592,10.88-10.88V502.923L3894.856,502.923z M4450.578,811.301
		c-10.203,0-18.168-2.916-24-8.726c-5.777-5.811-8.692-13.795-8.692-23.979V506.202c0-27.591-8.538-51.746-25.612-72.465
		c-17.076-20.667-43.053-31.027-77.88-31.027c-34.88,0-60.856,10.359-77.931,31.027c-17.076,20.719-25.613,44.874-25.613,72.465
		v272.395c0,10.184-2.916,18.168-8.693,23.979c-5.831,5.81-13.848,8.726-23.999,8.726h-32.692c-10.152,0-18.168-2.916-23.947-8.726
		c-5.83-5.811-8.693-13.795-8.693-23.979V506.202c0-26.133,4.841-51.226,14.68-75.172c9.787-23.999,23.427-44.875,40.866-62.679
		c17.439-17.751,38.471-31.963,63.199-42.479c24.675-10.517,52.317-15.773,82.824-15.773s58.097,5.257,82.772,15.773
		c24.676,10.516,45.76,24.728,63.25,42.479c17.389,17.804,31.027,38.68,40.814,62.679c9.787,23.947,14.732,49.039,14.732,75.172
		v272.395c0,10.184-2.914,18.168-8.746,23.979c-5.83,5.81-13.795,8.726-23.946,8.726H4450.578L4450.578,811.301L4450.578,811.301z
		 M1475.229,510.158c14.523,0,28.511-2.759,41.942-8.173c13.426-5.466,25.249-13.274,35.421-23.427
		c10.146-10.15,18.345-22.333,24.509-36.493c6.174-14.16,9.261-29.621,9.261-46.332c0-16.711-3.087-31.756-9.261-45.187
		c-6.164-13.483-14.353-24.885-24.509-34.359c-10.172-9.422-21.995-16.711-35.421-21.76c-13.431-5.102-27.435-7.653-41.942-7.653
		h-134.02c-7.257,0-10.901,3.645-10.901,10.88v201.57c0,7.288,3.64,10.932,10.901,10.932H1475.229L1475.229,510.158z"/>
	<path fill-rule="evenodd" clip-rule="evenodd" fill="#4A80B5" d="M550.211,491.629c-35.05-74.849-103.118-131.148-185.457-150.152
		c-4.166-1.52-8.613-2.454-13.243-2.703l-2.503-0.449v0.379c-25.336,0-45.872,20.536-45.872,45.872
		c0,21.522,14.821,39.58,34.813,44.528v0.003l11.059,2.736c65.489,17.075,116.54,69.879,131.093,136.354
		c0.237,1.544,0.556,3.062,0.94,4.551l0.067,0.333v-0.075h0.003c5.222,19.602,23.085,34.04,44.328,34.04s39.109-14.438,44.328-34.04
		C573.081,546.43,561.212,515.127,550.211,491.629z"/>
	<path fill-rule="evenodd" clip-rule="evenodd" fill="#4A80B5" d="M910.189,571.258c-0.218-3.385-0.469-6.791-0.744-10.305
		c-0.04-2.07-0.221-4.135-0.57-6.384C882.46,261.8,649.688,28.501,356.683,1.468c-2.763-0.521-5.569-0.781-8.381-0.781
		c-24.947,0-45.165,20.218-45.165,45.165c0,24.944,20.218,45.165,45.165,45.165h3.063v0.653
		c251.498,24.549,449.716,227.552,468.341,479.588h0.34l0.604,2.276c5.26,19.758,23.205,33.513,43.646,33.513
		c20.46,0,38.389-13.776,43.643-33.513l0.604-2.276H910.189z"/>
	<circle fill-rule="evenodd" clip-rule="evenodd" fill="#4A80B5" cx="111.925" cy="798.264" r="110.194"/>
	<path fill-rule="evenodd" clip-rule="evenodd" fill="#4A80B5" d="M816.674,766.927c-0.14,27.396-22.319,49.575-49.714,49.714
		h-13.891h-0.233h-0.006h-12.686h-87.946h-46.253h-95.02h-93.506H288.833c-3.617,35.241-17.533,67.426-38.677,93.513h260.767
		h141.273h98.816h0.685h35.943v-0.019c67.819-0.811,122.548-56.031,122.548-124.043V763.68v-0.236
		c0-25.821-20.935-46.754-46.756-46.754c-16.418,0-30.858,8.467-39.2,21.269l-0.143-0.003v0.218
		c-4.689,7.286-7.413,15.962-7.413,25.271C816.661,763.736,816.674,765.351,816.674,766.927z"/>
	<path fill-rule="evenodd" clip-rule="evenodd" fill="#4A80B5" d="M143.262,93.516c-27.395,0.139-49.574,22.318-49.714,49.714
		v13.891v0.233v0.006v12.687v87.946v46.253v95.02v93.507v128.584c-35.241,3.617-67.425,17.533-93.512,38.677V399.265V257.992
		v-98.816v-0.684v-35.943h0.018C0.865,54.729,56.085,0,124.097,0h22.413h0.236c25.821,0,46.753,20.935,46.753,46.756
		c0,16.419-8.467,30.858-21.268,39.201l0.003,0.142h-0.218c-7.286,4.689-15.962,7.413-25.27,7.413
		C146.452,93.528,144.839,93.516,143.262,93.516z"/>
</g>
</svg>
