<?xml version="1.0" encoding="utf-8"?>
<!-- Generator: Adobe Illustrator 14.0.0, SVG Export Plug-In . SVG Version: 6.00 Build 43363)  -->
<!DOCTYPE svg PUBLIC "-//W3C//DTD SVG 1.1//EN" "http://www.w3.org/Graphics/SVG/1.1/DTD/svg11.dtd">
<svg version="1.1" id="_x31_" xmlns="http://www.w3.org/2000/svg" xmlns:xlink="http://www.w3.org/1999/xlink" x="0px" y="0px"
	 width="1000px" height="1000px" viewBox="0 0 1000 1000" enable-background="new 0 0 1000 1000" xml:space="preserve">
<g>
	<path fill-rule="evenodd" clip-rule="evenodd" fill="#4A80B5" d="M604.486,540.161c-38.51-82.237-113.297-144.095-203.764-164.975
		c-4.577-1.67-9.464-2.697-14.55-2.97l-2.75-0.494v0.417c-27.837,0-50.4,22.563-50.4,50.4c0,23.647,16.283,43.487,38.25,48.924
		v0.003l12.15,3.007c71.954,18.76,128.044,76.777,144.034,149.814c0.26,1.696,0.61,3.363,1.033,5l0.073,0.366v-0.083h0.004
		c5.736,21.536,25.363,37.4,48.703,37.4s42.971-15.864,48.704-37.4C629.613,600.371,616.573,565.978,604.486,540.161z"/>
	<path fill-rule="evenodd" clip-rule="evenodd" fill="#4A80B5" d="M1000,627.65c-0.239-3.72-0.516-7.462-0.818-11.322
		c-0.044-2.275-0.242-4.544-0.626-7.015C969.533,287.644,713.783,31.315,391.854,1.613c-3.036-0.572-6.119-0.858-9.208-0.858
		c-27.41,0-49.624,22.213-49.624,49.623c0,27.407,22.213,49.624,49.624,49.624h3.366v0.717
		c276.324,26.973,494.109,250.015,514.572,526.932h0.374l0.663,2.5c5.779,21.709,25.495,36.82,47.954,36.82
		c22.479,0,42.179-15.135,47.951-36.82l0.663-2.5H1000z"/>
	<circle fill-rule="evenodd" clip-rule="evenodd" fill="#4A80B5" cx="122.935" cy="877.064" r="121.072"/>
	<path fill-rule="evenodd" clip-rule="evenodd" fill="#4A80B5" d="M897.253,842.635c-0.153,30.1-24.522,54.468-54.621,54.621
		h-15.263h-0.256h-0.007h-13.938h-96.627h-50.82H561.321H458.584H317.307c-3.975,38.72-19.264,74.081-42.495,102.743h286.509h155.22
		h108.57h0.751h39.492v-0.02C939.867,999.088,1000,938.417,1000,863.691v-24.625v-0.26c0-28.37-23.002-51.368-51.372-51.368
		c-18.04,0-33.904,9.303-43.07,23.367l-0.156-0.003v0.239c-5.152,8.006-8.146,17.538-8.146,27.765
		C897.239,839.129,897.253,840.901,897.253,842.635z"/>
	<path fill-rule="evenodd" clip-rule="evenodd" fill="#4A80B5" d="M157.365,102.747c-30.099,0.153-54.468,24.521-54.621,54.621
		v15.263v0.256v0.006v13.939v96.627v50.82v104.4v102.736v141.277C64.023,686.667,28.663,701.956,0,725.188V438.679v-155.22v-108.57
		v-0.751v-39.492h0.02C0.912,60.132,61.583,0,136.309,0h24.625h0.259c28.37,0,51.369,23.002,51.369,51.372
		c0,18.04-9.303,33.904-23.368,43.071l0.003,0.156h-0.239c-8.005,5.152-17.538,8.146-27.765,8.146
		C160.871,102.76,159.098,102.747,157.365,102.747z"/>
</g>
</svg>
