<?xml version="1.0" encoding="utf-8"?>
<!-- Generator: Adobe Illustrator 14.0.0, SVG Export Plug-In . SVG Version: 6.00 Build 43363)  -->
<!DOCTYPE svg PUBLIC "-//W3C//DTD SVG 1.1//EN" "http://www.w3.org/Graphics/SVG/1.1/DTD/svg11.dtd">
<svg version="1.1" id="Layer_1" xmlns="http://www.w3.org/2000/svg" xmlns:xlink="http://www.w3.org/1999/xlink" x="0px" y="0px"
	 width="1000px" height="1000px" viewBox="0 0 1000 1000" enable-background="new 0 0 1000 1000" xml:space="preserve">
<g>
	<path fill-rule="evenodd" clip-rule="evenodd" fill="#4A80B6" d="M124.444,572.316c3.632,1.746,6.941,3.726,9.981,5.884
		c-2.74,20.93-8.681,53.036-20.847,74.104c-19.336,33.501-64.88,49.239-64.88,49.239c132.1,0,173.288-76.016,184.528-106.683
		c1.233,0.011,2.493,0.06,3.774,0.165h57.215c1.96-24.386,7.608-48.146,17.309-70.862c1.544-3.617,3.171-7.186,4.876-10.705h-96.166
		c-17.421,0-33.786-3.298-49.363-9.895c-15.438-6.601-29.033-15.709-40.648-27.321c-11.616-11.615-20.72-25.209-27.583-40.779
		c-6.863-15.576-10.292-32.073-10.292-49.494c0-17.423,3.43-33.919,10.292-49.494c6.863-15.572,15.967-29.168,27.583-40.78
		c11.615-11.615,25.21-20.722,40.648-27.32c15.577-6.601,31.941-9.897,49.363-9.897h255.379c17.421,0,33.786,3.296,49.355,9.897
		c15.446,6.599,29.037,15.705,40.656,27.32c11.611,11.612,20.585,25.208,27.186,40.78c6.173,14.571,9.46,29.951,9.857,46.139h81.574
		c-0.401-27.779-5.798-53.847-16.203-78.21c-10.821-25.337-25.738-47.512-44.741-66.515c-19.007-19.007-41.178-33.92-66.519-44.741
		c-25.341-10.823-52.53-16.235-81.563-16.235H220.235h-0.397c-29.037,0-56.218,5.413-81.56,16.235
		c-25.341,10.821-47.515,25.734-66.518,44.741c-19.007,19.003-33.921,41.177-44.742,66.515
		c-10.825,25.341-16.237,52.528-16.237,81.565c0,29.035,5.412,56.222,16.237,81.563c10.821,25.337,25.735,47.512,44.742,66.515
		C87.222,549.517,104.786,562.271,124.444,572.316z"/>
	<path fill-rule="evenodd" clip-rule="evenodd" fill="#4A80B6" d="M525.637,405.768h0.394h228.727
		c2.5-1.566,4.914-2.966,7.245-4.233c6.866-23.345,42.77-113.84,186.9-113.84c0,0-45.539,15.742-64.88,49.241
		c-12.294,21.295-18.234,53.865-20.934,74.779c10.652,9.865,19.678,20.146,19.678,20.146l0,0
		c17.106,9.477,32.549,21.104,46.327,34.882c19.007,19.003,33.921,41.177,44.741,66.515c10.821,25.341,16.233,52.53,16.233,81.566
		c0,29.033-5.412,56.223-16.233,81.563c-10.82,25.338-25.734,47.512-44.741,66.515c-19.007,19.007-41.177,33.92-66.519,44.741
		c-25.337,10.824-52.526,16.233-81.563,16.233H526.03h-0.394c-29.036,0-56.222-5.409-81.563-16.233
		c-25.341-10.821-47.515-25.734-66.519-44.741c-19.003-19.003-33.92-41.177-44.741-66.515
		c-10.821-25.341-16.233-52.53-16.233-81.563c0-29.036,5.413-56.226,16.233-81.566c10.821-25.338,25.738-47.512,44.741-66.515
		c19.003-19.007,41.177-33.918,66.519-44.739C469.415,411.178,496.601,405.768,525.637,405.768L525.637,405.768z M781.41,742.313
		c17.421,0,33.789-3.298,49.358-9.895c15.442-6.601,29.037-15.709,40.652-27.32c11.616-11.615,20.585-25.21,27.186-40.783
		c6.601-15.574,9.898-32.069,9.898-49.491c0-17.425-3.298-33.92-9.898-49.494c-6.601-15.573-15.569-29.168-27.186-40.779
		c-11.615-11.615-25.21-20.72-40.652-27.32c-15.569-6.6-31.938-9.898-49.358-9.898H526.03c-17.421,0-33.785,3.298-49.362,9.898
		c-15.438,6.601-29.029,15.705-40.648,27.32c-11.612,11.611-20.72,25.206-27.579,40.779c-6.863,15.574-10.296,32.069-10.296,49.494
		c0,17.422,3.433,33.917,10.296,49.491c6.859,15.573,15.967,29.168,27.579,40.783c11.619,11.611,25.21,20.72,40.648,27.32
		c15.577,6.597,31.941,9.895,49.362,9.895H781.41z"/>
</g>
</svg>
