<?xml version="1.0" encoding="utf-8"?>
<!-- Generator: Adobe Illustrator 14.0.0, SVG Export Plug-In . SVG Version: 6.00 Build 43363)  -->
<!DOCTYPE svg PUBLIC "-//W3C//DTD SVG 1.1//EN" "http://www.w3.org/Graphics/SVG/1.1/DTD/svg11.dtd">
<svg version="1.1" id="Layer_1" xmlns="http://www.w3.org/2000/svg" xmlns:xlink="http://www.w3.org/1999/xlink" x="0px" y="0px"
	 width="971px" height="363px" viewBox="0 0 971 363" enable-background="new 0 0 971 363" xml:space="preserve">
<g>
	<path fill-rule="evenodd" clip-rule="evenodd" fill="#DDE2E8" d="M59.161,113.283L2.967,310.312c0,0-16.163,35.189,31.312,35.189
		h264.439h0.097h5.901c16.94,0,37.563,0,42.722-26.982l56.81-199.276c0.806-2.398,1.871-6.449,1.783-10.909
		c0.088-3.584-0.567-6.658-2.228-9.281c-3.62-6.917-12.397-12.751-31.721-12.751h-35.458h-25.376h-62.3l13.716-44.77
		c8.606-2.622,14.864-9.554,14.864-20.081c0-10.532-9.398-20.99-20.989-20.99c-11.592,0-20.99,12.691-20.99,20.99
		c0,8.293,1.749,9.588,4.67,13.198l-15.822,51.652H101.883C84.938,86.301,64.319,86.301,59.161,113.283z"/>
	<path fill-rule="evenodd" clip-rule="evenodd" fill="#FFFFFF" d="M165.926,317.66l-22.708-77.765
		c26.954-7.972,42.262-24.423,50.874-54.681l3.028-10.618c12.325-43.265-5.631-61.313-55.001-61.313H90.624L32.412,317.66h36.63
		l20.486-71.923h13.541l20.12,71.923H165.926L165.926,317.66z M98.864,212.034l18.522-65.042h15.661
		c28.405,0,30.573,10.088,25.054,29.465l-1.964,6.903c-5.519,19.371-15.597,28.673-42.145,28.673H98.864z"/>
	<path fill-rule="evenodd" clip-rule="evenodd" fill="#FFFFFF" d="M363.229,150.128l-7.263,26.33h-33.739
		c5.671-19.909,4.069-31.059-24.33-31.059c-26.549,0-34.765,11.149-40.285,30.525l-22.606,79.367
		c-5.515,19.383-3.649,30.52,22.9,30.52c26.538,0,36.352-11.137,42.096-31.321h34.438l-5.866,21.278
		c-14.743,29.621-39.854,42.439-79.895,42.439c-48.579,0-62.852-18.855-50.831-61.059l23.667-83.084
		c12.319-43.265,36.23-61.051,85.605-61.051C345.508,113.014,363.293,123.933,363.229,150.128z"/>
	<path fill-rule="evenodd" clip-rule="evenodd" fill="#DDE2E8" d="M824.27,317.308h34.604l27.061-92.966
		c5.598-19.226,18.123-25.791,31.517-25.791c14.4,0,20.204,7.835,14.614,27.042l-26.698,91.715h34.369l26.768-91.97
		c13.237-45.472-7.015-58.364-31.595-58.109c-12.632,0-27.246,5.045-39.83,16.163l2.638-15.161h-30.06L824.27,317.308z"/>
	<path fill-rule="evenodd" clip-rule="evenodd" fill="#DDE2E8" d="M770.098,271.588c-2.999,10.355-11.519,16.157-27.94,16.157
		c-14.146,0-22.177-4.533-15.182-28.548l1.104-3.789h80.842l8.617-29.563c11.693-40.176-1.789-58.117-40.954-58.117
		c-39.156,0-63.883,20.722-74.775,58.117l-9.857,33.863c-11.694,40.17,1.788,58.108,40.953,58.108
		c39.156,0,62.202-14.909,71.317-46.229H770.098L770.098,271.588z M768.847,197.808c19.716,0,20.233,10.355,14.782,29.055h-47.246
		C741.61,208.926,748.38,197.808,768.847,197.808z"/>
	<path fill-rule="evenodd" clip-rule="evenodd" fill="#DDE2E8" d="M574.553,168.231L518.008,362.54h34.612l16.55-56.857
		c2.94,9.849,14.615,13.148,26.738,13.148c33.109,0,55.989-20.477,66.208-55.588l11.187-38.411
		c12.055-41.439-2.94-57.602-32.259-57.602c-16.921,0-31.214,6.566-40.114,17.18l2.179-16.178H574.553L574.553,168.231z
		 M597.159,286.73c-13.882,0-20.496-6.819-15.26-24.756l9.916-34.115c5.002-17.175,14.996-29.816,32.181-29.816
		c13.647,0,20.428,7.074,14.175,28.565l-10.229,35.11C622.726,279.674,612.067,286.73,597.159,286.73z"/>
	<path fill-rule="evenodd" clip-rule="evenodd" fill="#DDE2E8" d="M443.256,319.828c39.162,0,63.087-17.936,74.78-58.109
		l10.434-35.873c11.704-40.176-1.768-58.117-40.933-58.117c-39.167,0-63.375,18.947-74.786,58.117l-10.434,35.873
		C390.619,301.892,404.095,319.828,443.256,319.828L443.256,319.828z M452.234,289.016c-18.196,0-19.905-10.63-14.537-29.056
		l9.413-32.356c5.368-18.444,13.262-29.053,31.453-29.053c18.186,0,19.905,10.608,14.533,29.053l-9.414,32.356
		C478.314,278.386,470.43,289.016,452.234,289.016z"/>
</g>
</svg>
