<?xml version="1.0" encoding="utf-8"?>
<!-- Generator: Adobe Illustrator 15.0.0, SVG Export Plug-In . SVG Version: 6.00 Build 0)  -->
<!DOCTYPE svg PUBLIC "-//W3C//DTD SVG 1.1//EN" "http://www.w3.org/Graphics/SVG/1.1/DTD/svg11.dtd">
<svg version="1.1" id="конверт_1_" xmlns="http://www.w3.org/2000/svg" xmlns:xlink="http://www.w3.org/1999/xlink" x="0px"
	 y="0px" width="29.071px" height="20px" viewBox="0 0 29.071 20" enable-background="new 0 0 29.071 20" xml:space="preserve">
<g id="Shape_46">
	<g>
		<path fill-rule="evenodd" clip-rule="evenodd" fill="#FFFFFF" d="M28.067-0.002H0.998C0.444-0.002-0.006,0.446-0.006,1v17.998
			c0,0.553,0.45,1.001,1.004,1.001h27.069c0.555,0,1.004-0.448,1.004-1.001V1C29.071,0.446,28.622-0.002,28.067-0.002z"/>
	</g>
</g>
<g id="Shape_4">
	<g>
		<polygon fill-rule="evenodd" clip-rule="evenodd" fill="#676767" points="4.05,1.041 2.962,2.302 14.518,12.573 15.605,11.311 		
			"/>
	</g>
</g>
<g id="Shape_4_copy">
	<g>
		<polygon fill-rule="evenodd" clip-rule="evenodd" fill="#676767" points="25.03,1.041 13.474,11.311 14.561,12.573 26.117,2.302 
					"/>
	</g>
</g>
<g id="Shape_6">
	<g>
		
			<rect x="1.257" y="14.129" transform="matrix(0.6771 -0.7359 0.7359 0.6771 -9.0917 9.2144)" fill-rule="evenodd" clip-rule="evenodd" fill="#676767" width="9.395" height="1.677"/>
	</g>
</g>
<g id="Shape_6_copy_3">
	<g>
		
			<rect x="22.268" y="10.271" transform="matrix(0.7359 -0.6771 0.6771 0.7359 -4.032 19.5986)" fill-rule="evenodd" clip-rule="evenodd" fill="#676767" width="1.677" height="9.395"/>
	</g>
</g>
</svg>
