<?xml version="1.0" encoding="utf-8"?>
<!-- Generator: Adobe Illustrator 15.0.0, SVG Export Plug-In . SVG Version: 6.00 Build 0)  -->
<!DOCTYPE svg PUBLIC "-//W3C//DTD SVG 1.1//EN" "http://www.w3.org/Graphics/SVG/1.1/DTD/svg11.dtd">
<svg version="1.1" id="замок_1_" xmlns="http://www.w3.org/2000/svg" xmlns:xlink="http://www.w3.org/1999/xlink" x="0px"
	 y="0px" width="11.065px" height="14px" viewBox="0 0 11.065 14" enable-background="new 0 0 11.065 14" xml:space="preserve">
<g id="Shape_49">
	<g>
		<path fill-rule="evenodd" clip-rule="evenodd" fill="#676767" d="M10.539,5.767H0.526C0.235,5.767,0,6.002,0,6.293v7.177
			c0,0.291,0.235,0.527,0.526,0.527h10.013c0.291,0,0.526-0.236,0.526-0.527V6.293C11.065,6.002,10.83,5.767,10.539,5.767z"/>
	</g>
</g>
<g id="Shape_50">
	<g>
		<path fill-rule="evenodd" clip-rule="evenodd" fill="#676767" d="M5.716-0.002H5.611c-2.027,0-3.671,1.644-3.671,3.67v2.36
			c0,2.028,1.644,3.671,3.671,3.671h0.104c2.027,0,3.671-1.644,3.671-3.671v-2.36C9.387,1.641,7.743-0.002,5.716-0.002z"/>
	</g>
</g>
<g id="Shape_50_copy">
	<g>
		<path fill-rule="evenodd" clip-rule="evenodd" fill="#FFFFFF" d="M5.697,1.309H5.63c-1.313,0-2.378,1.064-2.378,2.378v2.079h4.824
			V3.687C8.076,2.373,7.011,1.309,5.697,1.309z"/>
	</g>
</g>
<g id="Shape_51">
	<g>
		<circle fill-rule="evenodd" clip-rule="evenodd" fill="#FFFFFF" cx="5.667" cy="9.073" r="1.203"/>
	</g>
</g>
<g id="Shape_52">
	<g>
		<rect x="5.191" y="9.017" fill-rule="evenodd" clip-rule="evenodd" fill="#FFFFFF" width="0.944" height="2.885"/>
	</g>
</g>
</svg>
