<?xml version="1.0" encoding="utf-8"?>
<!-- Generator: Adobe Illustrator 15.0.0, SVG Export Plug-In . SVG Version: 6.00 Build 0)  -->
<!DOCTYPE svg PUBLIC "-//W3C//DTD SVG 1.1//EN" "http://www.w3.org/Graphics/SVG/1.1/DTD/svg11.dtd">
<svg version="1.1" id="_x31_4px_1_" xmlns="http://www.w3.org/2000/svg" xmlns:xlink="http://www.w3.org/1999/xlink" x="0px"
	 y="0px" width="14px" height="14px" viewBox="0 0 14 14" enable-background="new 0 0 14 14" xml:space="preserve">
<g id="Shape_44">
	<g>
		<path fill-rule="evenodd" clip-rule="evenodd" fill="#666766" d="M13.848,8.131L7.191,1.449H1.374v5.771l6.681,6.657
			c0,0,0.203,0.116,0.4,0.116c0.182,0,0.355-0.116,0.355-0.116l5.01-4.967c0,0,0.141-0.199,0.146-0.396
			C13.975,8.322,13.848,8.131,13.848,8.131z"/>
	</g>
</g>
<g id="Shape_43">
	<g>
		<path fill-rule="evenodd" clip-rule="evenodd" fill="#666766" d="M4.039,0c-2.21,0-3.984,1.77-4.038,3.979
			c-0.054,2.239,1.671,4.204,3.934,4.368c2.354,0.172,4.336-1.662,4.336-4.071C8.271,1.901,6.339,0,4.039,0z"/>
	</g>
</g>
<g id="Shape_40">
	<g>
		<circle fill-rule="evenodd" clip-rule="evenodd" fill="#FFFFFF" cx="3.695" cy="3.894" r="0.988"/>
	</g>
</g>
<g id="Shape_45">
	<g>
		<polygon fill-rule="evenodd" clip-rule="evenodd" fill="#FFFFFF" points="9.432,6.119 6.091,9.395 6.678,9.986 10.016,6.712 		"/>
	</g>
</g>
<g id="Shape_45_copy">
	<g>
		<polygon fill-rule="evenodd" clip-rule="evenodd" fill="#FFFFFF" points="11.102,7.783 7.762,11.058 8.348,11.651 11.688,8.377 		
			"/>
	</g>
</g>
</svg>
